<svg width="242" height="189" viewBox="0 0 242 189" fill="none" xmlns="http://www.w3.org/2000/svg">
<g clip-path="url(#clip0)">
<rect width="242" height="189" fill="black" fill-opacity="0"/>
<g opacity="0.2" filter="url(#filter0_i)">
<path fill-rule="evenodd" clip-rule="evenodd" d="M0 0H242V189H0V0Z" fill="black"/>
<path fill-rule="evenodd" clip-rule="evenodd" d="M0 0H242V189H0V0Z" stroke="black"/>
</g>
<rect width="161" height="98" fill="black" fill-opacity="0" transform="translate(40.5 49)"/>
<path d="M56.374 135.632C55.91 137.152 55.086 138.304 53.902 139.088C52.718 139.856 51.302 140.24 49.654 140.24C48.102 140.24 46.75 139.912 45.598 139.256C44.446 138.6 43.558 137.664 42.934 136.448C42.326 135.216 42.022 133.76 42.022 132.08C42.022 130.4 42.326 128.952 42.934 127.736C43.558 126.504 44.438 125.56 45.574 124.904C46.726 124.248 48.07 123.92 49.606 123.92C51.254 123.92 52.646 124.264 53.782 124.952C54.934 125.64 55.726 126.664 56.158 128.024L53.158 129.296C52.902 128.352 52.502 127.672 51.958 127.256C51.414 126.84 50.678 126.632 49.75 126.632C48.406 126.632 47.35 127.104 46.582 128.048C45.83 128.992 45.454 130.336 45.454 132.08C45.454 133.824 45.822 135.168 46.558 136.112C47.294 137.056 48.334 137.528 49.678 137.528C51.614 137.528 52.83 136.592 53.326 134.72L56.374 135.632ZM65.6528 127.76C66.2128 127.76 66.6448 127.848 66.9488 128.024L66.5408 130.904C66.1728 130.664 65.6688 130.544 65.0288 130.544C64.2448 130.544 63.5648 130.832 62.9888 131.408C62.4288 131.968 62.1488 132.76 62.1488 133.784V140H58.8608V128H61.7168L61.9328 130.352C62.5888 128.624 63.8288 127.76 65.6528 127.76ZM79.9594 133.952C79.9594 134.4 79.9274 134.832 79.8634 135.248H71.3674C71.7034 136.944 72.7034 137.792 74.3674 137.792C75.0554 137.792 75.6234 137.664 76.0714 137.408C76.5194 137.152 76.8314 136.784 77.0074 136.304L79.6954 137.288C79.3114 138.248 78.6634 138.984 77.7514 139.496C76.8554 139.992 75.7274 140.24 74.3674 140.24C72.3834 140.24 70.8474 139.696 69.7594 138.608C68.6714 137.504 68.1274 135.968 68.1274 134C68.1274 132.032 68.6554 130.504 69.7114 129.416C70.7674 128.312 72.2554 127.76 74.1754 127.76C76.0314 127.76 77.4554 128.296 78.4474 129.368C79.4554 130.44 79.9594 131.968 79.9594 133.952ZM74.1514 130.184C73.3514 130.184 72.7114 130.416 72.2314 130.88C71.7674 131.344 71.4714 132.032 71.3434 132.944H76.9354C76.8074 132.048 76.5034 131.368 76.0234 130.904C75.5434 130.424 74.9194 130.184 74.1514 130.184ZM93.6882 138.008C94.0242 138.008 94.2962 137.976 94.5042 137.912L94.2642 139.904C93.8162 140.128 93.2962 140.24 92.7042 140.24C91.1682 140.24 90.2482 139.64 89.9442 138.44C89.5922 139.032 89.0482 139.48 88.3122 139.784C87.5762 140.088 86.7042 140.24 85.6962 140.24C84.5282 140.24 83.6162 139.976 82.9602 139.448C82.3042 138.92 81.9762 138.16 81.9762 137.168C81.9762 135.216 83.5362 133.952 86.6562 133.376L89.5362 132.824V132.248C89.5362 131.608 89.3522 131.104 88.9842 130.736C88.6322 130.352 88.1362 130.16 87.4962 130.16C86.7602 130.16 86.1602 130.32 85.6962 130.64C85.2322 130.96 84.9122 131.48 84.7362 132.2L82.1202 131.096C82.3762 130.056 82.9522 129.24 83.8482 128.648C84.7442 128.056 85.9122 127.76 87.3522 127.76C89.0642 127.76 90.4002 128.136 91.3602 128.888C92.3202 129.624 92.8002 130.72 92.8002 132.176V137.096C92.8002 137.416 92.8722 137.648 93.0162 137.792C93.1602 137.936 93.3842 138.008 93.6882 138.008ZM86.7282 138.008C87.4322 138.008 88.0722 137.84 88.6482 137.504C89.2402 137.152 89.5362 136.68 89.5362 136.088V134.84L86.9682 135.416C86.4242 135.544 86.0162 135.72 85.7442 135.944C85.4882 136.152 85.3602 136.448 85.3602 136.832C85.3602 137.216 85.4802 137.512 85.7202 137.72C85.9602 137.912 86.2962 138.008 86.7282 138.008ZM104.265 139.256C103.881 139.56 103.393 139.8 102.801 139.976C102.225 140.152 101.617 140.24 100.977 140.24C98.3047 140.24 96.9687 139.032 96.9687 136.616V130.448H94.7847V128H96.9687V125.24L100.257 124.328V128H104.145V130.448H100.257V136.088C100.257 137.192 100.809 137.744 101.913 137.744C102.617 137.744 103.233 137.52 103.761 137.072L104.265 139.256ZM117.53 133.952C117.53 134.4 117.498 134.832 117.434 135.248H108.938C109.274 136.944 110.274 137.792 111.938 137.792C112.626 137.792 113.194 137.664 113.642 137.408C114.09 137.152 114.402 136.784 114.578 136.304L117.266 137.288C116.882 138.248 116.234 138.984 115.322 139.496C114.426 139.992 113.298 140.24 111.938 140.24C109.954 140.24 108.418 139.696 107.33 138.608C106.242 137.504 105.698 135.968 105.698 134C105.698 132.032 106.226 130.504 107.282 129.416C108.338 128.312 109.826 127.76 111.746 127.76C113.602 127.76 115.026 128.296 116.018 129.368C117.026 130.44 117.53 131.968 117.53 133.952ZM111.722 130.184C110.922 130.184 110.282 130.416 109.802 130.88C109.338 131.344 109.042 132.032 108.914 132.944H114.506C114.378 132.048 114.074 131.368 113.594 130.904C113.114 130.424 112.49 130.184 111.722 130.184ZM134.31 140H130.494L125.886 124.16H129.462L132.534 137.384L135.702 124.16H138.87L142.086 137.384L145.158 124.16H148.566L143.958 140H140.238L138.03 131.36L137.286 127.616H137.238L136.494 131.36L134.31 140ZM160.79 138.008C161.126 138.008 161.398 137.976 161.606 137.912L161.366 139.904C160.918 140.128 160.398 140.24 159.806 140.24C158.27 140.24 157.35 139.64 157.046 138.44C156.694 139.032 156.15 139.48 155.414 139.784C154.678 140.088 153.806 140.24 152.798 140.24C151.63 140.24 150.718 139.976 150.062 139.448C149.406 138.92 149.078 138.16 149.078 137.168C149.078 135.216 150.638 133.952 153.758 133.376L156.638 132.824V132.248C156.638 131.608 156.454 131.104 156.086 130.736C155.734 130.352 155.238 130.16 154.598 130.16C153.862 130.16 153.262 130.32 152.798 130.64C152.334 130.96 152.014 131.48 151.838 132.2L149.222 131.096C149.478 130.056 150.054 129.24 150.95 128.648C151.846 128.056 153.014 127.76 154.454 127.76C156.166 127.76 157.502 128.136 158.462 128.888C159.422 129.624 159.902 130.72 159.902 132.176V137.096C159.902 137.416 159.974 137.648 160.118 137.792C160.262 137.936 160.486 138.008 160.79 138.008ZM153.83 138.008C154.534 138.008 155.174 137.84 155.75 137.504C156.342 137.152 156.638 136.68 156.638 136.088V134.84L154.07 135.416C153.526 135.544 153.118 135.72 152.846 135.944C152.59 136.152 152.462 136.448 152.462 136.832C152.462 137.216 152.582 137.512 152.822 137.72C153.062 137.912 153.398 138.008 153.83 138.008ZM166.843 136.184C166.843 136.76 166.923 137.16 167.083 137.384C167.259 137.608 167.571 137.72 168.019 137.72C168.291 137.72 168.523 137.704 168.715 137.672C168.923 137.624 169.163 137.552 169.435 137.456L169.147 139.736C168.891 139.896 168.555 140.016 168.139 140.096C167.723 140.192 167.315 140.24 166.915 140.24C165.747 140.24 164.891 139.96 164.347 139.4C163.819 138.824 163.555 137.912 163.555 136.664V122.744H166.843V136.184ZM174.507 136.184C174.507 136.76 174.587 137.16 174.747 137.384C174.923 137.608 175.235 137.72 175.683 137.72C175.955 137.72 176.187 137.704 176.379 137.672C176.587 137.624 176.827 137.552 177.099 137.456L176.811 139.736C176.555 139.896 176.219 140.016 175.803 140.096C175.387 140.192 174.979 140.24 174.579 140.24C173.411 140.24 172.555 139.96 172.011 139.4C171.483 138.824 171.219 137.912 171.219 136.664V122.744H174.507V136.184ZM190.139 133.952C190.139 134.4 190.107 134.832 190.043 135.248H181.547C181.883 136.944 182.883 137.792 184.547 137.792C185.235 137.792 185.803 137.664 186.251 137.408C186.699 137.152 187.011 136.784 187.187 136.304L189.875 137.288C189.491 138.248 188.843 138.984 187.931 139.496C187.035 139.992 185.907 140.24 184.547 140.24C182.563 140.24 181.027 139.696 179.939 138.608C178.851 137.504 178.307 135.968 178.307 134C178.307 132.032 178.835 130.504 179.891 129.416C180.947 128.312 182.435 127.76 184.355 127.76C186.211 127.76 187.635 128.296 188.627 129.368C189.635 130.44 190.139 131.968 190.139 133.952ZM184.331 130.184C183.531 130.184 182.891 130.416 182.411 130.88C181.947 131.344 181.651 132.032 181.523 132.944H187.115C186.987 132.048 186.683 131.368 186.203 130.904C185.723 130.424 185.099 130.184 184.331 130.184ZM200.921 139.256C200.537 139.56 200.049 139.8 199.457 139.976C198.881 140.152 198.273 140.24 197.633 140.24C194.961 140.24 193.625 139.032 193.625 136.616V130.448H191.441V128H193.625V125.24L196.913 124.328V128H200.801V130.448H196.913V136.088C196.913 137.192 197.465 137.744 198.569 137.744C199.273 137.744 199.889 137.52 200.417 137.072L200.921 139.256Z" fill="white"/>
<path d="M154.776 96.3396V110.34H102.064C98.7053 110.34 95.9814 107.653 95.9814 104.34V77.3396" stroke="white" stroke-width="2"/>
<path d="M111.693 68.3396H154.776V82.3396" stroke="white" stroke-width="2"/>
<path d="M154.776 65.3396V56.3396H149.707" stroke="white" stroke-width="2"/>
<path fill-rule="evenodd" clip-rule="evenodd" d="M139.57 89.3396C139.57 90.9966 138.208 92.3396 136.529 92.3396C134.851 92.3396 133.488 90.9966 133.488 89.3396C133.488 87.6826 134.851 86.3396 136.529 86.3396C138.208 86.3396 139.57 87.6826 139.57 89.3396Z" stroke="white" stroke-width="2"/>
<path d="M149.707 72.3396H147.68" stroke="white" stroke-width="2"/>
<path d="M145.652 72.3396H143.625" stroke="white" stroke-width="2"/>
<path d="M141.598 72.3396H139.57" stroke="white" stroke-width="2"/>
<path d="M137.543 72.3396H135.516" stroke="white" stroke-width="2"/>
<path d="M133.488 72.3396H131.461" stroke="white" stroke-width="2"/>
<path d="M129.434 72.3396H127.406" stroke="white" stroke-width="2"/>
<path d="M125.379 72.3396H123.352" stroke="white" stroke-width="2"/>
<path d="M121.324 72.3396H119.297" stroke="white" stroke-width="2"/>
<path d="M117.27 72.3396H115.242" stroke="white" stroke-width="2"/>
<path d="M113.215 72.3396H111.188" stroke="white" stroke-width="2"/>
<path d="M109.159 72.3396H107.132" stroke="white" stroke-width="2"/>
<path d="M149.707 72.3396H147.68" stroke="white" stroke-width="2"/>
<path d="M145.652 72.3396H143.625" stroke="white" stroke-width="2"/>
<path d="M141.598 72.3396H139.57" stroke="white" stroke-width="2"/>
<path d="M137.543 72.3396H135.516" stroke="white" stroke-width="2"/>
<path d="M133.488 72.3396H131.461" stroke="white" stroke-width="2"/>
<path d="M129.434 72.3396H127.406" stroke="white" stroke-width="2"/>
<path d="M125.379 72.3396H123.352" stroke="white" stroke-width="2"/>
<path d="M121.324 72.3396H119.297" stroke="white" stroke-width="2"/>
<path d="M117.27 72.3396H115.242" stroke="white" stroke-width="2"/>
<path d="M113.215 72.3396H111.188" stroke="white" stroke-width="2"/>
<path d="M109.159 72.3396H107.132" stroke="white" stroke-width="2"/>
<path d="M149.707 106.34H147.68" stroke="white" stroke-width="2"/>
<path d="M145.652 106.34H143.625" stroke="white" stroke-width="2"/>
<path d="M141.598 106.34H139.57" stroke="white" stroke-width="2"/>
<path d="M137.543 106.34H135.516" stroke="white" stroke-width="2"/>
<path d="M133.488 106.34H131.461" stroke="white" stroke-width="2"/>
<path d="M129.434 106.34H127.406" stroke="white" stroke-width="2"/>
<path d="M125.379 106.34H123.352" stroke="white" stroke-width="2"/>
<path d="M121.324 106.34H119.297" stroke="white" stroke-width="2"/>
<path d="M117.27 106.34H115.242" stroke="white" stroke-width="2"/>
<path d="M113.215 106.34H111.188" stroke="white" stroke-width="2"/>
<path d="M109.159 106.34H107.132" stroke="white" stroke-width="2"/>
<path d="M105.105 106.34H103.077" stroke="white" stroke-width="2"/>
<path d="M149.707 106.34H147.68" stroke="white" stroke-width="2"/>
<path d="M145.652 106.34H143.625" stroke="white" stroke-width="2"/>
<path d="M141.598 106.34H139.57" stroke="white" stroke-width="2"/>
<path d="M137.543 106.34H135.516" stroke="white" stroke-width="2"/>
<path d="M133.488 106.34H131.461" stroke="white" stroke-width="2"/>
<path d="M129.434 106.34H127.406" stroke="white" stroke-width="2"/>
<path d="M125.379 106.34H123.352" stroke="white" stroke-width="2"/>
<path d="M121.324 106.34H119.297" stroke="white" stroke-width="2"/>
<path d="M117.27 106.34H115.242" stroke="white" stroke-width="2"/>
<path d="M113.215 106.34H111.188" stroke="white" stroke-width="2"/>
<path d="M109.159 106.34H107.132" stroke="white" stroke-width="2"/>
<path d="M105.105 106.34H103.077" stroke="white" stroke-width="2"/>
<path d="M154.776 76.3396H155.79C157.468 76.3396 158.831 77.6826 158.831 79.3396C158.831 80.9966 157.468 82.3396 155.79 82.3396H136.529C132.611 82.3396 129.434 85.4736 129.434 89.3396C129.434 93.2056 132.611 96.3396 136.529 96.3396H155.79C157.468 96.3396 158.831 94.9966 158.831 93.3396V79.3396" stroke="white" stroke-width="2"/>
<path d="M112.201 60.3396V54.3396H146.667V59.3396" stroke="white" stroke-width="2"/>
<path d="M140.585 63.3396V60.3396H111.188" stroke="white" stroke-width="2"/>
<path d="M154.776 62.3396H143.625" stroke="white" stroke-width="2"/>
<path d="M124.365 54.3396V57.3396" stroke="white" stroke-width="2"/>
<path d="M128.42 54.3396V57.3396" stroke="white" stroke-width="2"/>
<path d="M132.475 54.3396V57.3396" stroke="white" stroke-width="2"/>
<path d="M136.529 54.3396V57.3396" stroke="white" stroke-width="2"/>
<path d="M140.584 54.3396V57.3396" stroke="white" stroke-width="2"/>
<path d="M116.256 54.3396V57.3396" stroke="white" stroke-width="2"/>
<path d="M118.283 60.3396V63.3396" stroke="white" stroke-width="2"/>
<path d="M122.338 60.3396V63.3396" stroke="white" stroke-width="2"/>
<path d="M126.393 60.3396V63.3396" stroke="white" stroke-width="2"/>
<path d="M130.447 60.3396V63.3396" stroke="white" stroke-width="2"/>
<path d="M134.502 60.3396V63.3396" stroke="white" stroke-width="2"/>
<path fill-rule="evenodd" clip-rule="evenodd" d="M95.932 73.679L94.2492 71.681L91.5508 72.542L90.678 69.88L88.0829 69.643L88.3232 67.082L85.8305 65.748L87.1827 63.289L85.5 61.291L87.5254 59.631L86.6536 56.969L89.3521 56.109L89.5923 53.548L92.1884 53.785L93.5407 51.325L96.0333 52.66L98.0587 51L99.7415 52.998L102.44 52.137L103.312 54.8L105.908 55.036L105.668 57.597L108.16 58.931L106.808 61.39L108.491 63.388L106.465 65.048L107.337 67.71L104.639 68.571L104.398 71.131L101.802 70.894L100.45 73.354L97.9573 72.019L95.932 73.679Z" stroke="white" stroke-width="2"/>
</g>
<defs>
<filter id="filter0_i" x="0" y="0" width="242" height="193" filterUnits="userSpaceOnUse" color-interpolation-filters="sRGB">
<feFlood flood-opacity="0" result="BackgroundImageFix"/>
<feBlend mode="normal" in="SourceGraphic" in2="BackgroundImageFix" result="shape"/>
<feColorMatrix in="SourceAlpha" type="matrix" values="0 0 0 0 0 0 0 0 0 0 0 0 0 0 0 0 0 0 255 0" result="hardAlpha"/>
<feOffset dy="4"/>
<feGaussianBlur stdDeviation="2"/>
<feComposite in2="hardAlpha" operator="arithmetic" k2="-1" k3="1"/>
<feColorMatrix type="matrix" values="0 0 0 0 0 0 0 0 0 0 0 0 0 0 0 0 0 0 0.25 0"/>
<feBlend mode="normal" in2="shape" result="effect1_innerShadow"/>
</filter>
<clipPath id="clip0">
<rect width="242" height="189" fill="white"/>
</clipPath>
</defs>
</svg>
