<svg width="242" height="60" viewBox="0 0 242 60" fill="none" xmlns="http://www.w3.org/2000/svg">
<rect width="242" height="60" fill="black" fill-opacity="0"/>
<path opacity="0.2" fill-rule="evenodd" clip-rule="evenodd" d="M0 0H242V60H0V0Z" fill="black"/>
<path d="M71.075 26H69.47V16.1H71.075V26ZM82.7724 18.35C83.2724 18.35 83.7324 18.455 84.1524 18.665C84.5724 18.865 84.9074 19.175 85.1574 19.595C85.4074 20.015 85.5324 20.53 85.5324 21.14V26H83.9274V21.395C83.9274 20.805 83.7874 20.37 83.5074 20.09C83.2274 19.81 82.8524 19.67 82.3824 19.67C81.8324 19.67 81.3674 19.87 80.9874 20.27C80.6174 20.67 80.4324 21.22 80.4324 21.92V26H78.8274V21.395C78.8274 20.805 78.6874 20.37 78.4074 20.09C78.1274 19.81 77.7524 19.67 77.2824 19.67C76.9624 19.67 76.6524 19.755 76.3524 19.925C76.0524 20.085 75.8074 20.34 75.6174 20.69C75.4274 21.04 75.3324 21.48 75.3324 22.01V26H73.7274V18.5H75.1524L75.2274 19.745C75.4774 19.285 75.8174 18.94 76.2474 18.71C76.6774 18.47 77.1474 18.35 77.6574 18.35C78.2174 18.35 78.7224 18.48 79.1724 18.74C79.6324 18.99 79.9724 19.36 80.1924 19.85C80.4224 19.36 80.7724 18.99 81.2424 18.74C81.7224 18.48 82.2324 18.35 82.7724 18.35ZM92.0007 18.35C93.0307 18.35 93.8407 18.695 94.4307 19.385C95.0207 20.065 95.3157 21.015 95.3157 22.235C95.3157 23.455 95.0207 24.415 94.4307 25.115C93.8407 25.805 93.0307 26.15 92.0007 26.15C91.4607 26.15 90.9757 26.03 90.5457 25.79C90.1257 25.55 89.8007 25.22 89.5707 24.8V29.15H87.9657V18.5H89.3757L89.4507 19.895C89.6707 19.425 90.0007 19.05 90.4407 18.77C90.8907 18.49 91.4107 18.35 92.0007 18.35ZM91.6407 24.845C92.2907 24.845 92.7957 24.62 93.1557 24.17C93.5257 23.71 93.7107 23.07 93.7107 22.25C93.7107 21.43 93.5257 20.79 93.1557 20.33C92.7957 19.87 92.2907 19.64 91.6407 19.64C91.0307 19.64 90.5407 19.845 90.1707 20.255C89.8107 20.665 89.6107 21.235 89.5707 21.965V22.535C89.6107 23.255 89.8107 23.82 90.1707 24.23C90.5407 24.64 91.0307 24.845 91.6407 24.845ZM100.699 18.35C101.869 18.35 102.784 18.695 103.444 19.385C104.104 20.075 104.434 21.03 104.434 22.25C104.434 23.47 104.104 24.425 103.444 25.115C102.784 25.805 101.869 26.15 100.699 26.15C99.5293 26.15 98.6143 25.805 97.9543 25.115C97.2943 24.425 96.9643 23.47 96.9643 22.25C96.9643 21.03 97.2943 20.075 97.9543 19.385C98.6143 18.695 99.5293 18.35 100.699 18.35ZM100.699 19.61C100.019 19.61 99.4943 19.84 99.1243 20.3C98.7643 20.75 98.5843 21.4 98.5843 22.25C98.5843 23.1 98.7643 23.755 99.1243 24.215C99.4943 24.665 100.019 24.89 100.699 24.89C101.379 24.89 101.904 24.66 102.274 24.2C102.644 23.74 102.829 23.09 102.829 22.25C102.829 21.41 102.644 20.76 102.274 20.3C101.904 19.84 101.379 19.61 100.699 19.61ZM110.366 18.35C110.716 18.35 110.991 18.4 111.191 18.5L110.936 19.97C110.706 19.84 110.391 19.775 109.991 19.775C109.671 19.775 109.366 19.86 109.076 20.03C108.796 20.2 108.561 20.455 108.371 20.795C108.191 21.135 108.101 21.545 108.101 22.025V26H106.496V18.5H107.861L107.996 19.85C108.416 18.85 109.206 18.35 110.366 18.35ZM117.186 25.505C116.946 25.705 116.651 25.865 116.301 25.985C115.961 26.095 115.591 26.15 115.191 26.15C114.501 26.15 113.946 25.98 113.526 25.64C113.116 25.29 112.906 24.75 112.896 24.02V19.76H111.471V18.5H112.896V16.745L114.501 16.295V18.5H117.126V19.76H114.501V23.75C114.501 24.11 114.596 24.38 114.786 24.56C114.986 24.73 115.256 24.815 115.596 24.815C116.056 24.815 116.461 24.655 116.811 24.335L117.186 25.505ZM129.81 18.5L126.825 26H125.07L122.07 18.5H123.84L125.955 24.695L128.13 18.5H129.81ZM131.989 17.24C131.649 17.24 131.384 17.155 131.194 16.985C131.004 16.805 130.909 16.555 130.909 16.235C130.909 15.915 131.004 15.67 131.194 15.5C131.384 15.33 131.649 15.245 131.989 15.245C132.329 15.245 132.589 15.33 132.769 15.5C132.959 15.67 133.054 15.915 133.054 16.235C133.054 16.555 132.959 16.805 132.769 16.985C132.589 17.155 132.329 17.24 131.989 17.24ZM132.784 26H131.179V18.5H132.784V26ZM141.775 24.95C141.995 24.95 142.18 24.93 142.33 24.89L142.225 25.97C141.955 26.09 141.645 26.15 141.295 26.15C140.865 26.15 140.52 26.065 140.26 25.895C140.01 25.725 139.845 25.44 139.765 25.04C139.535 25.39 139.195 25.665 138.745 25.865C138.295 26.055 137.79 26.15 137.23 26.15C136.5 26.15 135.91 25.98 135.46 25.64C135.01 25.3 134.785 24.815 134.785 24.185C134.785 23.595 135.03 23.1 135.52 22.7C136.01 22.29 136.74 22 137.71 21.83L139.615 21.5V21.095C139.615 20.635 139.48 20.275 139.21 20.015C138.94 19.745 138.565 19.61 138.085 19.61C137.095 19.61 136.45 20.06 136.15 20.96L134.905 20.3C135.085 19.7 135.45 19.225 136 18.875C136.56 18.525 137.245 18.35 138.055 18.35C139.025 18.35 139.795 18.575 140.365 19.025C140.935 19.475 141.22 20.135 141.22 21.005V24.395C141.22 24.585 141.26 24.725 141.34 24.815C141.43 24.905 141.575 24.95 141.775 24.95ZM137.575 24.935C138.115 24.935 138.59 24.805 139 24.545C139.41 24.285 139.615 23.94 139.615 23.51V22.61L137.98 22.94C137.46 23.04 137.075 23.18 136.825 23.36C136.575 23.54 136.45 23.78 136.45 24.08C136.45 24.36 136.545 24.575 136.735 24.725C136.935 24.865 137.215 24.935 137.575 24.935ZM158.799 26H157.329V20.27L157.434 17.54H157.419L154.404 26H153.069L150.054 17.54H150.039L150.159 20.27V26H148.674V16.1H151.059L153.054 21.83L153.744 24.185H153.774L154.479 21.83L156.459 16.1H158.799V26ZM165.492 18.35C166.322 18.35 166.997 18.59 167.517 19.07C168.047 19.55 168.312 20.24 168.312 21.14V26H166.707V21.65C166.707 20.33 166.172 19.67 165.102 19.67C164.542 19.67 164.062 19.865 163.662 20.255C163.262 20.635 163.062 21.225 163.062 22.025V26H161.457V18.5H162.882L162.957 19.745C163.207 19.275 163.552 18.925 163.992 18.695C164.432 18.465 164.932 18.35 165.492 18.35ZM177.449 22.025C177.449 22.315 177.429 22.59 177.389 22.85H171.899C171.989 23.51 172.224 24.015 172.604 24.365C172.984 24.705 173.474 24.875 174.074 24.875C174.564 24.875 174.969 24.79 175.289 24.62C175.619 24.44 175.844 24.185 175.964 23.855L177.299 24.41C176.739 25.57 175.664 26.15 174.074 26.15C172.894 26.15 171.969 25.805 171.299 25.115C170.639 24.425 170.309 23.47 170.309 22.25C170.309 21.02 170.629 20.065 171.269 19.385C171.909 18.695 172.809 18.35 173.969 18.35C175.069 18.35 175.924 18.685 176.534 19.355C177.144 20.025 177.449 20.915 177.449 22.025ZM173.969 19.625C173.389 19.625 172.919 19.795 172.559 20.135C172.209 20.475 171.989 20.97 171.899 21.62H175.949C175.869 20.99 175.654 20.5 175.304 20.15C174.964 19.8 174.519 19.625 173.969 19.625ZM188.505 18.35C189.005 18.35 189.465 18.455 189.885 18.665C190.305 18.865 190.64 19.175 190.89 19.595C191.14 20.015 191.265 20.53 191.265 21.14V26H189.66V21.395C189.66 20.805 189.52 20.37 189.24 20.09C188.96 19.81 188.585 19.67 188.115 19.67C187.565 19.67 187.1 19.87 186.72 20.27C186.35 20.67 186.165 21.22 186.165 21.92V26H184.56V21.395C184.56 20.805 184.42 20.37 184.14 20.09C183.86 19.81 183.485 19.67 183.015 19.67C182.695 19.67 182.385 19.755 182.085 19.925C181.785 20.085 181.54 20.34 181.35 20.69C181.16 21.04 181.065 21.48 181.065 22.01V26H179.46V18.5H180.885L180.96 19.745C181.21 19.285 181.55 18.94 181.98 18.71C182.41 18.47 182.88 18.35 183.39 18.35C183.95 18.35 184.455 18.48 184.905 18.74C185.365 18.99 185.705 19.36 185.925 19.85C186.155 19.36 186.505 18.99 186.975 18.74C187.455 18.48 187.965 18.35 188.505 18.35ZM196.998 18.35C198.168 18.35 199.083 18.695 199.743 19.385C200.403 20.075 200.733 21.03 200.733 22.25C200.733 23.47 200.403 24.425 199.743 25.115C199.083 25.805 198.168 26.15 196.998 26.15C195.828 26.15 194.913 25.805 194.253 25.115C193.593 24.425 193.263 23.47 193.263 22.25C193.263 21.03 193.593 20.075 194.253 19.385C194.913 18.695 195.828 18.35 196.998 18.35ZM196.998 19.61C196.318 19.61 195.793 19.84 195.423 20.3C195.063 20.75 194.883 21.4 194.883 22.25C194.883 23.1 195.063 23.755 195.423 24.215C195.793 24.665 196.318 24.89 196.998 24.89C197.678 24.89 198.203 24.66 198.573 24.2C198.943 23.74 199.128 23.09 199.128 22.25C199.128 21.41 198.943 20.76 198.573 20.3C198.203 19.84 197.678 19.61 196.998 19.61ZM206.83 18.35C207.66 18.35 208.335 18.59 208.855 19.07C209.385 19.55 209.65 20.24 209.65 21.14V26H208.045V21.65C208.045 20.33 207.51 19.67 206.44 19.67C205.88 19.67 205.4 19.865 205 20.255C204.6 20.635 204.4 21.225 204.4 22.025V26H202.795V18.5H204.22L204.295 19.745C204.545 19.275 204.89 18.925 205.33 18.695C205.77 18.465 206.27 18.35 206.83 18.35ZM212.892 17.24C212.552 17.24 212.287 17.155 212.097 16.985C211.907 16.805 211.812 16.555 211.812 16.235C211.812 15.915 211.907 15.67 212.097 15.5C212.287 15.33 212.552 15.245 212.892 15.245C213.232 15.245 213.492 15.33 213.672 15.5C213.862 15.67 213.957 15.915 213.957 16.235C213.957 16.555 213.862 16.805 213.672 16.985C213.492 17.155 213.232 17.24 212.892 17.24ZM213.687 26H212.082V18.5H213.687V26ZM219.498 18.35C221.138 18.35 222.223 19.05 222.753 20.45L221.253 21.05C220.993 20.1 220.408 19.625 219.498 19.625C218.828 19.625 218.308 19.855 217.938 20.315C217.568 20.775 217.383 21.425 217.383 22.265C217.383 23.105 217.568 23.75 217.938 24.2C218.308 24.65 218.828 24.875 219.498 24.875C220.008 24.875 220.418 24.75 220.728 24.5C221.038 24.25 221.243 23.89 221.343 23.42L222.813 23.915C222.593 24.615 222.203 25.165 221.643 25.565C221.083 25.955 220.378 26.15 219.528 26.15C218.348 26.15 217.423 25.805 216.753 25.115C216.093 24.425 215.763 23.47 215.763 22.25C215.763 21.03 216.093 20.075 216.753 19.385C217.413 18.695 218.328 18.35 219.498 18.35ZM73.28 34.1C74.35 34.1 75.195 34.375 75.815 34.925C76.445 35.475 76.76 36.23 76.76 37.19C76.76 38.15 76.445 38.905 75.815 39.455C75.195 39.995 74.35 40.265 73.28 40.265H71.075V44H69.47V34.1H73.28ZM73.025 38.9C73.725 38.9 74.245 38.76 74.585 38.48C74.925 38.19 75.095 37.76 75.095 37.19C75.095 36.04 74.405 35.465 73.025 35.465H71.075V38.9H73.025ZM82.6843 36.35C83.5143 36.35 84.1893 36.59 84.7093 37.07C85.2393 37.55 85.5043 38.24 85.5043 39.14V44H83.8993V39.65C83.8993 38.33 83.3643 37.67 82.2943 37.67C81.7343 37.67 81.2543 37.865 80.8543 38.255C80.4543 38.645 80.2543 39.24 80.2543 40.04V44H78.6493V33.125H80.2543V37.7C80.5043 37.24 80.8343 36.9 81.2443 36.68C81.6643 36.46 82.1443 36.35 82.6843 36.35ZM91.8064 36.35C92.1564 36.35 92.4314 36.4 92.6314 36.5L92.3764 37.97C92.1464 37.84 91.8314 37.775 91.4314 37.775C91.1114 37.775 90.8064 37.86 90.5164 38.03C90.2364 38.2 90.0014 38.455 89.8114 38.795C89.6314 39.135 89.5414 39.545 89.5414 40.025V44H87.9364V36.5H89.3014L89.4364 37.85C89.8564 36.85 90.6464 36.35 91.8064 36.35ZM100.466 42.95C100.686 42.95 100.871 42.93 101.021 42.89L100.916 43.97C100.646 44.09 100.336 44.15 99.9862 44.15C99.5562 44.15 99.2112 44.065 98.9512 43.895C98.7012 43.725 98.5362 43.44 98.4562 43.04C98.2262 43.39 97.8862 43.665 97.4362 43.865C96.9862 44.055 96.4812 44.15 95.9212 44.15C95.1912 44.15 94.6012 43.98 94.1512 43.64C93.7012 43.3 93.4762 42.815 93.4762 42.185C93.4762 41.595 93.7212 41.1 94.2112 40.7C94.7012 40.29 95.4312 40 96.4012 39.83L98.3062 39.5V39.095C98.3062 38.635 98.1712 38.275 97.9012 38.015C97.6312 37.745 97.2562 37.61 96.7762 37.61C95.7862 37.61 95.1412 38.06 94.8412 38.96L93.5962 38.3C93.7762 37.7 94.1412 37.225 94.6912 36.875C95.2512 36.525 95.9362 36.35 96.7462 36.35C97.7162 36.35 98.4862 36.575 99.0562 37.025C99.6262 37.475 99.9112 38.135 99.9112 39.005V42.395C99.9112 42.585 99.9512 42.725 100.031 42.815C100.121 42.905 100.266 42.95 100.466 42.95ZM96.2662 42.935C96.8062 42.935 97.2812 42.805 97.6912 42.545C98.1012 42.285 98.3062 41.94 98.3062 41.51V40.61L96.6712 40.94C96.1512 41.04 95.7662 41.18 95.5162 41.36C95.2662 41.54 95.1412 41.78 95.1412 42.08C95.1412 42.36 95.2362 42.575 95.4262 42.725C95.6262 42.865 95.9062 42.935 96.2662 42.935ZM105.256 44.15C104.496 44.15 103.821 44.02 103.231 43.76C102.651 43.5 102.211 43.105 101.911 42.575L102.991 41.645C103.181 42.075 103.476 42.39 103.876 42.59C104.276 42.79 104.756 42.89 105.316 42.89C105.826 42.89 106.221 42.81 106.501 42.65C106.781 42.48 106.921 42.26 106.921 41.99C106.921 41.75 106.791 41.56 106.531 41.42C106.271 41.27 105.821 41.13 105.181 41C104.071 40.79 103.291 40.51 102.841 40.16C102.391 39.81 102.166 39.315 102.166 38.675C102.166 38.265 102.291 37.885 102.541 37.535C102.791 37.175 103.151 36.89 103.621 36.68C104.101 36.46 104.666 36.35 105.316 36.35C106.146 36.35 106.811 36.49 107.311 36.77C107.811 37.04 108.196 37.465 108.466 38.045L107.326 38.885C107.146 38.445 106.891 38.125 106.561 37.925C106.241 37.715 105.831 37.61 105.331 37.61C104.881 37.61 104.506 37.705 104.206 37.895C103.916 38.075 103.771 38.285 103.771 38.525C103.771 38.795 103.901 39.01 104.161 39.17C104.431 39.33 104.916 39.475 105.616 39.605C106.676 39.795 107.426 40.065 107.866 40.415C108.306 40.765 108.526 41.255 108.526 41.885C108.526 42.555 108.236 43.1 107.656 43.52C107.076 43.94 106.276 44.15 105.256 44.15ZM117.171 40.025C117.171 40.315 117.151 40.59 117.111 40.85H111.621C111.711 41.51 111.946 42.015 112.326 42.365C112.706 42.705 113.196 42.875 113.796 42.875C114.286 42.875 114.691 42.79 115.011 42.62C115.341 42.44 115.566 42.185 115.686 41.855L117.021 42.41C116.461 43.57 115.386 44.15 113.796 44.15C112.616 44.15 111.691 43.805 111.021 43.115C110.361 42.425 110.031 41.47 110.031 40.25C110.031 39.02 110.351 38.065 110.991 37.385C111.631 36.695 112.531 36.35 113.691 36.35C114.791 36.35 115.646 36.685 116.256 37.355C116.866 38.025 117.171 38.915 117.171 40.025ZM113.691 37.625C113.111 37.625 112.641 37.795 112.281 38.135C111.931 38.475 111.711 38.97 111.621 39.62H115.671C115.591 38.99 115.376 38.5 115.026 38.15C114.686 37.8 114.241 37.625 113.691 37.625Z" fill="white"/>
<rect width="31" height="29" fill="black" fill-opacity="0" transform="translate(20 14)"/>
<path fill-rule="evenodd" clip-rule="evenodd" d="M33 19H51V22H33V19Z" stroke="white"/>
<path fill-rule="evenodd" clip-rule="evenodd" d="M50 26H48V25H46V22H50V26Z" stroke="white"/>
<path fill-rule="evenodd" clip-rule="evenodd" d="M25 20.5C25 21.328 24.328 22 23.5 22C22.672 22 22 21.328 22 20.5C22 19.672 22.672 19 23.5 19C24.328 19 25 19.672 25 20.5Z" stroke="white"/>
<path fill-rule="evenodd" clip-rule="evenodd" d="M28 31H36V29H28V31Z" stroke="white"/>
<path fill-rule="evenodd" clip-rule="evenodd" d="M38 31H51V29H38V31Z" stroke="white"/>
<path fill-rule="evenodd" clip-rule="evenodd" d="M20 35H28V33H20V35Z" stroke="white"/>
<path fill-rule="evenodd" clip-rule="evenodd" d="M30 35H41V33H30V35Z" stroke="white"/>
<path fill-rule="evenodd" clip-rule="evenodd" d="M43 35H51V33H43V35Z" stroke="white"/>
<path fill-rule="evenodd" clip-rule="evenodd" d="M20 39H31V37H20V39Z" stroke="white"/>
<path fill-rule="evenodd" clip-rule="evenodd" d="M33 39H43V37H33V39Z" stroke="white"/>
<path fill-rule="evenodd" clip-rule="evenodd" d="M45 39H51V37H45V39Z" stroke="white"/>
<path fill-rule="evenodd" clip-rule="evenodd" d="M20 43H29V41H20V43Z" stroke="white"/>
<path fill-rule="evenodd" clip-rule="evenodd" d="M31 43H40V41H31V43Z" stroke="white"/>
<path fill-rule="evenodd" clip-rule="evenodd" d="M20 31H26V29H20V31Z" stroke="white"/>
<path fill-rule="evenodd" clip-rule="evenodd" d="M33 20.5C33 24.09 30.09 27 26.5 27C22.91 27 20 24.09 20 20.5C20 16.91 22.91 14 26.5 14C30.09 14 33 16.91 33 20.5Z" stroke="white"/>
<path d="M41.5 25H40.5" stroke="white"/>
<path d="M43.5 25H42.5" stroke="white"/>
<path d="M39.5 25H38.5" stroke="white"/>
<path d="M37.5 25H36.5" stroke="white"/>
</svg>
