<svg width="242" height="60" viewBox="0 0 242 60" fill="none" xmlns="http://www.w3.org/2000/svg">
<rect width="242" height="60" fill="black" fill-opacity="0"/>
<path opacity="0.2" fill-rule="evenodd" clip-rule="evenodd" d="M0 0H242V60H0V0Z" fill="black"/>
<path d="M71.075 26H69.47V16.1H71.075V26ZM82.7724 18.35C83.2724 18.35 83.7324 18.455 84.1524 18.665C84.5724 18.865 84.9074 19.175 85.1574 19.595C85.4074 20.015 85.5324 20.53 85.5324 21.14V26H83.9274V21.395C83.9274 20.805 83.7874 20.37 83.5074 20.09C83.2274 19.81 82.8524 19.67 82.3824 19.67C81.8324 19.67 81.3674 19.87 80.9874 20.27C80.6174 20.67 80.4324 21.22 80.4324 21.92V26H78.8274V21.395C78.8274 20.805 78.6874 20.37 78.4074 20.09C78.1274 19.81 77.7524 19.67 77.2824 19.67C76.9624 19.67 76.6524 19.755 76.3524 19.925C76.0524 20.085 75.8074 20.34 75.6174 20.69C75.4274 21.04 75.3324 21.48 75.3324 22.01V26H73.7274V18.5H75.1524L75.2274 19.745C75.4774 19.285 75.8174 18.94 76.2474 18.71C76.6774 18.47 77.1474 18.35 77.6574 18.35C78.2174 18.35 78.7224 18.48 79.1724 18.74C79.6324 18.99 79.9724 19.36 80.1924 19.85C80.4224 19.36 80.7724 18.99 81.2424 18.74C81.7224 18.48 82.2324 18.35 82.7724 18.35ZM92.0007 18.35C93.0307 18.35 93.8407 18.695 94.4307 19.385C95.0207 20.065 95.3157 21.015 95.3157 22.235C95.3157 23.455 95.0207 24.415 94.4307 25.115C93.8407 25.805 93.0307 26.15 92.0007 26.15C91.4607 26.15 90.9757 26.03 90.5457 25.79C90.1257 25.55 89.8007 25.22 89.5707 24.8V29.15H87.9657V18.5H89.3757L89.4507 19.895C89.6707 19.425 90.0007 19.05 90.4407 18.77C90.8907 18.49 91.4107 18.35 92.0007 18.35ZM91.6407 24.845C92.2907 24.845 92.7957 24.62 93.1557 24.17C93.5257 23.71 93.7107 23.07 93.7107 22.25C93.7107 21.43 93.5257 20.79 93.1557 20.33C92.7957 19.87 92.2907 19.64 91.6407 19.64C91.0307 19.64 90.5407 19.845 90.1707 20.255C89.8107 20.665 89.6107 21.235 89.5707 21.965V22.535C89.6107 23.255 89.8107 23.82 90.1707 24.23C90.5407 24.64 91.0307 24.845 91.6407 24.845ZM100.699 18.35C101.869 18.35 102.784 18.695 103.444 19.385C104.104 20.075 104.434 21.03 104.434 22.25C104.434 23.47 104.104 24.425 103.444 25.115C102.784 25.805 101.869 26.15 100.699 26.15C99.5293 26.15 98.6143 25.805 97.9543 25.115C97.2943 24.425 96.9643 23.47 96.9643 22.25C96.9643 21.03 97.2943 20.075 97.9543 19.385C98.6143 18.695 99.5293 18.35 100.699 18.35ZM100.699 19.61C100.019 19.61 99.4943 19.84 99.1243 20.3C98.7643 20.75 98.5843 21.4 98.5843 22.25C98.5843 23.1 98.7643 23.755 99.1243 24.215C99.4943 24.665 100.019 24.89 100.699 24.89C101.379 24.89 101.904 24.66 102.274 24.2C102.644 23.74 102.829 23.09 102.829 22.25C102.829 21.41 102.644 20.76 102.274 20.3C101.904 19.84 101.379 19.61 100.699 19.61ZM110.366 18.35C110.716 18.35 110.991 18.4 111.191 18.5L110.936 19.97C110.706 19.84 110.391 19.775 109.991 19.775C109.671 19.775 109.366 19.86 109.076 20.03C108.796 20.2 108.561 20.455 108.371 20.795C108.191 21.135 108.101 21.545 108.101 22.025V26H106.496V18.5H107.861L107.996 19.85C108.416 18.85 109.206 18.35 110.366 18.35ZM117.186 25.505C116.946 25.705 116.651 25.865 116.301 25.985C115.961 26.095 115.591 26.15 115.191 26.15C114.501 26.15 113.946 25.98 113.526 25.64C113.116 25.29 112.906 24.75 112.896 24.02V19.76H111.471V18.5H112.896V16.745L114.501 16.295V18.5H117.126V19.76H114.501V23.75C114.501 24.11 114.596 24.38 114.786 24.56C114.986 24.73 115.256 24.815 115.596 24.815C116.056 24.815 116.461 24.655 116.811 24.335L117.186 25.505ZM129.81 18.5L126.825 26H125.07L122.07 18.5H123.84L125.955 24.695L128.13 18.5H129.81ZM131.989 17.24C131.649 17.24 131.384 17.155 131.194 16.985C131.004 16.805 130.909 16.555 130.909 16.235C130.909 15.915 131.004 15.67 131.194 15.5C131.384 15.33 131.649 15.245 131.989 15.245C132.329 15.245 132.589 15.33 132.769 15.5C132.959 15.67 133.054 15.915 133.054 16.235C133.054 16.555 132.959 16.805 132.769 16.985C132.589 17.155 132.329 17.24 131.989 17.24ZM132.784 26H131.179V18.5H132.784V26ZM141.775 24.95C141.995 24.95 142.18 24.93 142.33 24.89L142.225 25.97C141.955 26.09 141.645 26.15 141.295 26.15C140.865 26.15 140.52 26.065 140.26 25.895C140.01 25.725 139.845 25.44 139.765 25.04C139.535 25.39 139.195 25.665 138.745 25.865C138.295 26.055 137.79 26.15 137.23 26.15C136.5 26.15 135.91 25.98 135.46 25.64C135.01 25.3 134.785 24.815 134.785 24.185C134.785 23.595 135.03 23.1 135.52 22.7C136.01 22.29 136.74 22 137.71 21.83L139.615 21.5V21.095C139.615 20.635 139.48 20.275 139.21 20.015C138.94 19.745 138.565 19.61 138.085 19.61C137.095 19.61 136.45 20.06 136.15 20.96L134.905 20.3C135.085 19.7 135.45 19.225 136 18.875C136.56 18.525 137.245 18.35 138.055 18.35C139.025 18.35 139.795 18.575 140.365 19.025C140.935 19.475 141.22 20.135 141.22 21.005V24.395C141.22 24.585 141.26 24.725 141.34 24.815C141.43 24.905 141.575 24.95 141.775 24.95ZM137.575 24.935C138.115 24.935 138.59 24.805 139 24.545C139.41 24.285 139.615 23.94 139.615 23.51V22.61L137.98 22.94C137.46 23.04 137.075 23.18 136.825 23.36C136.575 23.54 136.45 23.78 136.45 24.08C136.45 24.36 136.545 24.575 136.735 24.725C136.935 24.865 137.215 24.935 137.575 24.935ZM72.68 39.23L71.075 40.955V44H69.47V34.1H71.075V39.02L75.62 34.1H77.585L73.835 38.15L77.675 44H75.785L72.68 39.23ZM85.3396 40.025C85.3396 40.315 85.3196 40.59 85.2796 40.85H79.7896C79.8796 41.51 80.1146 42.015 80.4946 42.365C80.8746 42.705 81.3646 42.875 81.9646 42.875C82.4546 42.875 82.8596 42.79 83.1796 42.62C83.5096 42.44 83.7346 42.185 83.8546 41.855L85.1896 42.41C84.6296 43.57 83.5546 44.15 81.9646 44.15C80.7846 44.15 79.8596 43.805 79.1896 43.115C78.5296 42.425 78.1996 41.47 78.1996 40.25C78.1996 39.02 78.5196 38.065 79.1596 37.385C79.7996 36.695 80.6996 36.35 81.8596 36.35C82.9596 36.35 83.8146 36.685 84.4246 37.355C85.0346 38.025 85.3396 38.915 85.3396 40.025ZM81.8596 37.625C81.2796 37.625 80.8096 37.795 80.4496 38.135C80.0996 38.475 79.8796 38.97 79.7896 39.62H83.8396C83.7596 38.99 83.5446 38.5 83.1946 38.15C82.8546 37.8 82.4096 37.625 81.8596 37.625ZM90.4786 44.885C90.1486 45.745 89.7736 46.35 89.3536 46.7C88.9336 47.05 88.3836 47.225 87.7036 47.225C87.3136 47.225 86.9736 47.175 86.6836 47.075C86.4036 46.985 86.1536 46.835 85.9336 46.625L86.3986 45.395C86.6986 45.755 87.1086 45.935 87.6286 45.935C87.9286 45.935 88.1786 45.855 88.3786 45.695C88.5886 45.545 88.7736 45.265 88.9336 44.855L89.2636 44.045L88.4836 42.185L86.1436 36.5H87.9436L89.5936 41.21L90.0286 42.62L90.5386 41.075L92.0986 36.5H93.7636L90.4786 44.885ZM97.7412 44.15C96.9813 44.15 96.3063 44.02 95.7163 43.76C95.1363 43.5 94.6963 43.105 94.3963 42.575L95.4763 41.645C95.6663 42.075 95.9613 42.39 96.3613 42.59C96.7613 42.79 97.2413 42.89 97.8013 42.89C98.3113 42.89 98.7063 42.81 98.9863 42.65C99.2663 42.48 99.4063 42.26 99.4063 41.99C99.4063 41.75 99.2763 41.56 99.0163 41.42C98.7563 41.27 98.3063 41.13 97.6663 41C96.5563 40.79 95.7763 40.51 95.3263 40.16C94.8763 39.81 94.6513 39.315 94.6513 38.675C94.6513 38.265 94.7763 37.885 95.0263 37.535C95.2763 37.175 95.6363 36.89 96.1063 36.68C96.5863 36.46 97.1513 36.35 97.8013 36.35C98.6313 36.35 99.2963 36.49 99.7963 36.77C100.296 37.04 100.681 37.465 100.951 38.045L99.8113 38.885C99.6313 38.445 99.3763 38.125 99.0463 37.925C98.7263 37.715 98.3163 37.61 97.8163 37.61C97.3663 37.61 96.9913 37.705 96.6913 37.895C96.4013 38.075 96.2563 38.285 96.2563 38.525C96.2563 38.795 96.3863 39.01 96.6463 39.17C96.9163 39.33 97.4013 39.475 98.1013 39.605C99.1613 39.795 99.9113 40.065 100.351 40.415C100.791 40.765 101.011 41.255 101.011 41.885C101.011 42.555 100.721 43.1 100.141 43.52C99.5613 43.94 98.7613 44.15 97.7412 44.15ZM107.826 43.505C107.586 43.705 107.291 43.865 106.941 43.985C106.601 44.095 106.231 44.15 105.831 44.15C105.141 44.15 104.586 43.98 104.166 43.64C103.756 43.29 103.546 42.75 103.536 42.02V37.76H102.111V36.5H103.536V34.745L105.141 34.295V36.5H107.766V37.76H105.141V41.75C105.141 42.11 105.236 42.38 105.426 42.56C105.626 42.73 105.896 42.815 106.236 42.815C106.696 42.815 107.101 42.655 107.451 42.335L107.826 43.505ZM112.623 36.35C113.793 36.35 114.708 36.695 115.368 37.385C116.028 38.075 116.358 39.03 116.358 40.25C116.358 41.47 116.028 42.425 115.368 43.115C114.708 43.805 113.793 44.15 112.623 44.15C111.453 44.15 110.538 43.805 109.878 43.115C109.218 42.425 108.888 41.47 108.888 40.25C108.888 39.03 109.218 38.075 109.878 37.385C110.538 36.695 111.453 36.35 112.623 36.35ZM112.623 37.61C111.943 37.61 111.418 37.84 111.048 38.3C110.688 38.75 110.508 39.4 110.508 40.25C110.508 41.1 110.688 41.755 111.048 42.215C111.418 42.665 111.943 42.89 112.623 42.89C113.303 42.89 113.828 42.66 114.198 42.2C114.568 41.74 114.753 41.09 114.753 40.25C114.753 39.41 114.568 38.76 114.198 38.3C113.828 37.84 113.303 37.61 112.623 37.61ZM122.29 36.35C122.64 36.35 122.915 36.4 123.115 36.5L122.86 37.97C122.63 37.84 122.315 37.775 121.915 37.775C121.595 37.775 121.29 37.86 121 38.03C120.72 38.2 120.485 38.455 120.295 38.795C120.115 39.135 120.025 39.545 120.025 40.025V44H118.42V36.5H119.785L119.92 37.85C120.34 36.85 121.13 36.35 122.29 36.35ZM131.145 40.025C131.145 40.315 131.125 40.59 131.085 40.85H125.595C125.685 41.51 125.92 42.015 126.3 42.365C126.68 42.705 127.17 42.875 127.77 42.875C128.26 42.875 128.665 42.79 128.985 42.62C129.315 42.44 129.54 42.185 129.66 41.855L130.995 42.41C130.435 43.57 129.36 44.15 127.77 44.15C126.59 44.15 125.665 43.805 124.995 43.115C124.335 42.425 124.005 41.47 124.005 40.25C124.005 39.02 124.325 38.065 124.965 37.385C125.605 36.695 126.505 36.35 127.665 36.35C128.765 36.35 129.62 36.685 130.23 37.355C130.84 38.025 131.145 38.915 131.145 40.025ZM127.665 37.625C127.085 37.625 126.615 37.795 126.255 38.135C125.905 38.475 125.685 38.97 125.595 39.62H129.645C129.565 38.99 129.35 38.5 129 38.15C128.66 37.8 128.215 37.625 127.665 37.625ZM133.669 45.05H132.169L136.639 33.125H138.139L133.669 45.05ZM144.916 40.49C144.916 41.64 144.596 42.54 143.956 43.19C143.326 43.83 142.446 44.15 141.316 44.15C140.276 44.15 139.481 43.905 138.931 43.415C138.381 42.915 138.106 42.235 138.106 41.375C138.106 41.065 138.131 40.785 138.181 40.535L139.711 40.25C139.671 40.63 139.651 40.885 139.651 41.015C139.651 41.615 139.786 42.055 140.056 42.335C140.326 42.615 140.746 42.755 141.316 42.755C142.046 42.755 142.561 42.55 142.861 42.14C143.161 41.72 143.311 41.07 143.311 40.19V34.1H144.916V40.49ZM151.097 33.95C152.007 33.95 152.782 34.115 153.422 34.445C154.072 34.775 154.617 35.28 155.057 35.96L153.842 37.055C153.562 36.455 153.212 36.02 152.792 35.75C152.372 35.48 151.812 35.345 151.112 35.345C150.422 35.345 149.887 35.485 149.507 35.765C149.127 36.035 148.937 36.385 148.937 36.815C148.937 37.215 149.122 37.535 149.492 37.775C149.862 38.005 150.522 38.205 151.472 38.375C152.362 38.535 153.067 38.74 153.587 38.99C154.117 39.23 154.502 39.535 154.742 39.905C154.982 40.265 155.102 40.715 155.102 41.255C155.102 41.835 154.937 42.345 154.607 42.785C154.277 43.225 153.812 43.565 153.212 43.805C152.622 44.035 151.937 44.15 151.157 44.15C149.147 44.15 147.727 43.48 146.897 42.14L148.022 41.015C148.342 41.615 148.752 42.055 149.252 42.335C149.762 42.615 150.392 42.755 151.142 42.755C151.852 42.755 152.407 42.635 152.807 42.395C153.217 42.145 153.422 41.795 153.422 41.345C153.422 40.985 153.237 40.695 152.867 40.475C152.507 40.255 151.872 40.06 150.962 39.89C150.052 39.72 149.327 39.51 148.787 39.26C148.247 39.01 147.852 38.7 147.602 38.33C147.362 37.96 147.242 37.51 147.242 36.98C147.242 36.42 147.397 35.91 147.707 35.45C148.017 34.99 148.462 34.625 149.042 34.355C149.632 34.085 150.317 33.95 151.097 33.95ZM161.456 33.95C162.406 33.95 163.231 34.155 163.931 34.565C164.641 34.975 165.186 35.565 165.566 36.335C165.946 37.105 166.136 38.01 166.136 39.05C166.136 40.09 165.946 40.995 165.566 41.765C165.186 42.535 164.641 43.125 163.931 43.535C163.231 43.945 162.406 44.15 161.456 44.15C160.506 44.15 159.681 43.945 158.981 43.535C158.281 43.125 157.741 42.535 157.361 41.765C156.981 40.995 156.791 40.09 156.791 39.05C156.791 38.01 156.981 37.105 157.361 36.335C157.741 35.565 158.281 34.975 158.981 34.565C159.681 34.155 160.506 33.95 161.456 33.95ZM161.456 35.345C160.526 35.345 159.796 35.67 159.266 36.32C158.736 36.97 158.471 37.88 158.471 39.05C158.471 40.22 158.736 41.13 159.266 41.78C159.796 42.43 160.526 42.755 161.456 42.755C162.396 42.755 163.131 42.43 163.661 41.78C164.191 41.13 164.456 40.22 164.456 39.05C164.456 37.88 164.191 36.97 163.661 36.32C163.131 35.67 162.396 35.345 161.456 35.345ZM176.638 44H174.733L170.908 37.76L169.948 35.93H169.933L169.993 37.61V44H168.523V34.1H170.413L174.223 40.325L175.198 42.17H175.213L175.153 40.49V34.1H176.638V44ZM186.051 35.48V38.345H190.401V39.74H186.051V44H184.446V34.1H191.601V35.48H186.051ZM194.201 35.24C193.861 35.24 193.596 35.155 193.406 34.985C193.216 34.805 193.121 34.555 193.121 34.235C193.121 33.915 193.216 33.67 193.406 33.5C193.596 33.33 193.861 33.245 194.201 33.245C194.541 33.245 194.801 33.33 194.981 33.5C195.171 33.67 195.266 33.915 195.266 34.235C195.266 34.555 195.171 34.805 194.981 34.985C194.801 35.155 194.541 35.24 194.201 35.24ZM194.996 44H193.391V36.5H194.996V44ZM199.067 41.81C199.067 42.18 199.122 42.44 199.232 42.59C199.342 42.73 199.547 42.8 199.847 42.8C200.037 42.8 200.197 42.79 200.327 42.77C200.467 42.74 200.637 42.685 200.837 42.605L200.657 43.895C200.317 44.065 199.902 44.15 199.412 44.15C198.742 44.15 198.247 43.98 197.927 43.64C197.617 43.3 197.462 42.765 197.462 42.035V33.125H199.067V41.81ZM208.885 40.025C208.885 40.315 208.865 40.59 208.825 40.85H203.335C203.425 41.51 203.66 42.015 204.04 42.365C204.42 42.705 204.91 42.875 205.51 42.875C206 42.875 206.405 42.79 206.725 42.62C207.055 42.44 207.28 42.185 207.4 41.855L208.735 42.41C208.175 43.57 207.1 44.15 205.51 44.15C204.33 44.15 203.405 43.805 202.735 43.115C202.075 42.425 201.745 41.47 201.745 40.25C201.745 39.02 202.065 38.065 202.705 37.385C203.345 36.695 204.245 36.35 205.405 36.35C206.505 36.35 207.36 36.685 207.97 37.355C208.58 38.025 208.885 38.915 208.885 40.025ZM205.405 37.625C204.825 37.625 204.355 37.795 203.995 38.135C203.645 38.475 203.425 38.97 203.335 39.62H207.385C207.305 38.99 207.09 38.5 206.74 38.15C206.4 37.8 205.955 37.625 205.405 37.625Z" fill="white"/>
<rect width="22.5" height="30" fill="black" fill-opacity="0" transform="translate(23.5 14.5)"/>
<path fill-rule="evenodd" clip-rule="evenodd" d="M46 44.5H23.5V14.5H41.5L46 19V44.5Z" stroke="white"/>
<path d="M46 19H41.5V14.5" stroke="white"/>
<path d="M31 37H32.5" stroke="white"/>
<path d="M34 37H35.5" stroke="white"/>
<path d="M37 37H38.5" stroke="white"/>
<path d="M43 21.25V41.5H26.5V17.5H39.25" stroke="white"/>
<path d="M35.2495 26.25L40.4675 30.847V32.968H37.9315L37.2245 32.261V30.847H35.8105L35.1035 30.139" stroke="white"/>
<path d="M32.5078 22.5928L31.0928 24.0078" stroke="white"/>
<path fill-rule="evenodd" clip-rule="evenodd" d="M34.9823 26.4823C33.6153 27.8483 31.3993 27.8483 30.0323 26.4823C28.6663 25.1153 28.6663 22.8993 30.0323 21.5323C31.3993 20.1663 33.6153 20.1663 34.9823 21.5323C36.3483 22.8993 36.3483 25.1153 34.9823 26.4823Z" stroke="white"/>
</svg>
