<svg width="242" height="60" viewBox="0 0 242 60" fill="none" xmlns="http://www.w3.org/2000/svg">
<rect width="242" height="60" fill="black" fill-opacity="0"/>
<path opacity="0.2" fill-rule="evenodd" clip-rule="evenodd" d="M0 0H242V60H0V0Z" fill="black"/>
<path d="M73.88 26H72.005L68.33 16.1H70.04L72.35 22.685L72.95 24.65L73.55 22.7L75.86 16.1H77.555L73.88 26ZM79.9427 17.24C79.6027 17.24 79.3377 17.155 79.1477 16.985C78.9577 16.805 78.8627 16.555 78.8627 16.235C78.8627 15.915 78.9577 15.67 79.1477 15.5C79.3377 15.33 79.6027 15.245 79.9427 15.245C80.2827 15.245 80.5427 15.33 80.7227 15.5C80.9127 15.67 81.0077 15.915 81.0077 16.235C81.0077 16.555 80.9127 16.805 80.7227 16.985C80.5427 17.155 80.2827 17.24 79.9427 17.24ZM80.7377 26H79.1327V18.5H80.7377V26ZM89.9539 22.025C89.9539 22.315 89.9339 22.59 89.8939 22.85H84.4039C84.4939 23.51 84.7289 24.015 85.1089 24.365C85.4889 24.705 85.9789 24.875 86.5789 24.875C87.0689 24.875 87.4739 24.79 87.7939 24.62C88.1239 24.44 88.3489 24.185 88.4689 23.855L89.8039 24.41C89.2439 25.57 88.1689 26.15 86.5789 26.15C85.3989 26.15 84.4739 25.805 83.8039 25.115C83.1439 24.425 82.8139 23.47 82.8139 22.25C82.8139 21.02 83.1339 20.065 83.7739 19.385C84.4139 18.695 85.3139 18.35 86.4739 18.35C87.5739 18.35 88.4289 18.685 89.0389 19.355C89.6489 20.025 89.9539 20.915 89.9539 22.025ZM86.4739 19.625C85.8939 19.625 85.4239 19.795 85.0639 20.135C84.7139 20.475 84.4939 20.97 84.4039 21.62H88.4539C88.3739 20.99 88.1589 20.5 87.8089 20.15C87.4689 19.8 87.0239 19.625 86.4739 19.625ZM103.174 18.5L100.669 26H98.9143L97.0243 20.33L95.2243 26H93.4693L90.9643 18.5H92.7043L94.3993 24.5L96.2743 18.5H97.8643L99.7243 24.5L101.434 18.5H103.174ZM120.445 18.5L117.94 26H116.185L114.295 20.33L112.495 26H110.74L108.235 18.5H109.975L111.67 24.5L113.545 18.5H115.135L116.995 24.5L118.705 18.5H120.445ZM122.921 17.24C122.581 17.24 122.316 17.155 122.126 16.985C121.936 16.805 121.841 16.555 121.841 16.235C121.841 15.915 121.936 15.67 122.126 15.5C122.316 15.33 122.581 15.245 122.921 15.245C123.261 15.245 123.521 15.33 123.701 15.5C123.891 15.67 123.986 15.915 123.986 16.235C123.986 16.555 123.891 16.805 123.701 16.985C123.521 17.155 123.261 17.24 122.921 17.24ZM123.716 26H122.111V18.5H123.716V26ZM131.087 25.505C130.847 25.705 130.552 25.865 130.202 25.985C129.862 26.095 129.492 26.15 129.092 26.15C128.402 26.15 127.847 25.98 127.427 25.64C127.017 25.29 126.807 24.75 126.797 24.02V19.76H125.372V18.5H126.797V16.745L128.402 16.295V18.5H131.027V19.76H128.402V23.75C128.402 24.11 128.497 24.38 128.687 24.56C128.887 24.73 129.157 24.815 129.497 24.815C129.957 24.815 130.362 24.655 130.712 24.335L131.087 25.505ZM136.678 18.35C137.508 18.35 138.183 18.59 138.703 19.07C139.233 19.55 139.498 20.24 139.498 21.14V26H137.893V21.65C137.893 20.33 137.358 19.67 136.288 19.67C135.728 19.67 135.248 19.865 134.848 20.255C134.448 20.645 134.248 21.24 134.248 22.04V26H132.643V15.125H134.248V19.7C134.498 19.24 134.828 18.9 135.238 18.68C135.658 18.46 136.138 18.35 136.678 18.35ZM152.101 23.405H147.931L146.986 26H145.336L149.071 16.1H150.991L154.726 26H153.031L152.101 23.405ZM151.621 22.1L150.481 18.92L150.031 17.495H149.986L149.566 18.89L148.396 22.1H151.621ZM163.055 15.125V26H161.645L161.555 24.665C161.335 25.115 161 25.475 160.55 25.745C160.11 26.015 159.605 26.15 159.035 26.15C158.005 26.15 157.19 25.81 156.59 25.13C156 24.44 155.705 23.485 155.705 22.265C155.705 21.045 156 20.09 156.59 19.4C157.19 18.7 158.005 18.35 159.035 18.35C159.585 18.35 160.07 18.475 160.49 18.725C160.91 18.965 161.23 19.295 161.45 19.715V15.125H163.055ZM159.395 24.86C160.025 24.86 160.525 24.635 160.895 24.185C161.265 23.735 161.45 23.12 161.45 22.34V22.16C161.45 21.38 161.265 20.77 160.895 20.33C160.525 19.88 160.025 19.655 159.395 19.655C158.745 19.655 158.235 19.885 157.865 20.345C157.505 20.795 157.325 21.43 157.325 22.25C157.325 23.07 157.505 23.71 157.865 24.17C158.235 24.63 158.745 24.86 159.395 24.86ZM172.489 15.125V26H171.079L170.989 24.665C170.769 25.115 170.434 25.475 169.984 25.745C169.544 26.015 169.039 26.15 168.469 26.15C167.439 26.15 166.624 25.81 166.024 25.13C165.434 24.44 165.139 23.485 165.139 22.265C165.139 21.045 165.434 20.09 166.024 19.4C166.624 18.7 167.439 18.35 168.469 18.35C169.019 18.35 169.504 18.475 169.924 18.725C170.344 18.965 170.664 19.295 170.884 19.715V15.125H172.489ZM168.829 24.86C169.459 24.86 169.959 24.635 170.329 24.185C170.699 23.735 170.884 23.12 170.884 22.34V22.16C170.884 21.38 170.699 20.77 170.329 20.33C169.959 19.88 169.459 19.655 168.829 19.655C168.179 19.655 167.669 19.885 167.299 20.345C166.939 20.795 166.759 21.43 166.759 22.25C166.759 23.07 166.939 23.71 167.299 24.17C167.669 24.63 168.179 24.86 168.829 24.86ZM178.847 18.35C179.197 18.35 179.472 18.4 179.672 18.5L179.417 19.97C179.187 19.84 178.872 19.775 178.472 19.775C178.152 19.775 177.847 19.86 177.557 20.03C177.277 20.2 177.042 20.455 176.852 20.795C176.672 21.135 176.582 21.545 176.582 22.025V26H174.977V18.5H176.342L176.477 19.85C176.897 18.85 177.687 18.35 178.847 18.35ZM187.703 22.025C187.703 22.315 187.683 22.59 187.643 22.85H182.153C182.243 23.51 182.478 24.015 182.858 24.365C183.238 24.705 183.728 24.875 184.328 24.875C184.818 24.875 185.223 24.79 185.543 24.62C185.873 24.44 186.098 24.185 186.218 23.855L187.553 24.41C186.993 25.57 185.918 26.15 184.328 26.15C183.148 26.15 182.223 25.805 181.553 25.115C180.893 24.425 180.563 23.47 180.563 22.25C180.563 21.02 180.883 20.065 181.523 19.385C182.163 18.695 183.063 18.35 184.223 18.35C185.323 18.35 186.178 18.685 186.788 19.355C187.398 20.025 187.703 20.915 187.703 22.025ZM184.223 19.625C183.643 19.625 183.173 19.795 182.813 20.135C182.463 20.475 182.243 20.97 182.153 21.62H186.203C186.123 20.99 185.908 20.5 185.558 20.15C185.218 19.8 184.773 19.625 184.223 19.625ZM192.429 26.15C191.669 26.15 190.994 26.02 190.404 25.76C189.824 25.5 189.384 25.105 189.084 24.575L190.164 23.645C190.354 24.075 190.649 24.39 191.049 24.59C191.449 24.79 191.929 24.89 192.489 24.89C192.999 24.89 193.394 24.81 193.674 24.65C193.954 24.48 194.094 24.26 194.094 23.99C194.094 23.75 193.964 23.56 193.704 23.42C193.444 23.27 192.994 23.13 192.354 23C191.244 22.79 190.464 22.51 190.014 22.16C189.564 21.81 189.339 21.315 189.339 20.675C189.339 20.265 189.464 19.885 189.714 19.535C189.964 19.175 190.324 18.89 190.794 18.68C191.274 18.46 191.839 18.35 192.489 18.35C193.319 18.35 193.984 18.49 194.484 18.77C194.984 19.04 195.369 19.465 195.639 20.045L194.499 20.885C194.319 20.445 194.064 20.125 193.734 19.925C193.414 19.715 193.004 19.61 192.504 19.61C192.054 19.61 191.679 19.705 191.379 19.895C191.089 20.075 190.944 20.285 190.944 20.525C190.944 20.795 191.074 21.01 191.334 21.17C191.604 21.33 192.089 21.475 192.789 21.605C193.849 21.795 194.599 22.065 195.039 22.415C195.479 22.765 195.699 23.255 195.699 23.885C195.699 24.555 195.409 25.1 194.829 25.52C194.249 25.94 193.449 26.15 192.429 26.15ZM200.368 26.15C199.608 26.15 198.933 26.02 198.343 25.76C197.763 25.5 197.323 25.105 197.023 24.575L198.103 23.645C198.293 24.075 198.588 24.39 198.988 24.59C199.388 24.79 199.868 24.89 200.428 24.89C200.938 24.89 201.333 24.81 201.613 24.65C201.893 24.48 202.033 24.26 202.033 23.99C202.033 23.75 201.903 23.56 201.643 23.42C201.383 23.27 200.933 23.13 200.293 23C199.183 22.79 198.403 22.51 197.953 22.16C197.503 21.81 197.278 21.315 197.278 20.675C197.278 20.265 197.403 19.885 197.653 19.535C197.903 19.175 198.263 18.89 198.733 18.68C199.213 18.46 199.778 18.35 200.428 18.35C201.258 18.35 201.923 18.49 202.423 18.77C202.923 19.04 203.308 19.465 203.578 20.045L202.438 20.885C202.258 20.445 202.003 20.125 201.673 19.925C201.353 19.715 200.943 19.61 200.443 19.61C199.993 19.61 199.618 19.705 199.318 19.895C199.028 20.075 198.883 20.285 198.883 20.525C198.883 20.795 199.013 21.01 199.273 21.17C199.543 21.33 200.028 21.475 200.728 21.605C201.788 21.795 202.538 22.065 202.978 22.415C203.418 22.765 203.638 23.255 203.638 23.885C203.638 24.555 203.348 25.1 202.768 25.52C202.188 25.94 201.388 26.15 200.368 26.15ZM73.58 33.95C74.53 33.95 75.355 34.155 76.055 34.565C76.765 34.975 77.31 35.565 77.69 36.335C78.07 37.105 78.26 38.01 78.26 39.05C78.26 40.09 78.07 40.995 77.69 41.765C77.31 42.535 76.765 43.125 76.055 43.535C75.355 43.945 74.53 44.15 73.58 44.15C72.63 44.15 71.805 43.945 71.105 43.535C70.405 43.125 69.865 42.535 69.485 41.765C69.105 40.995 68.915 40.09 68.915 39.05C68.915 38.01 69.105 37.105 69.485 36.335C69.865 35.565 70.405 34.975 71.105 34.565C71.805 34.155 72.63 33.95 73.58 33.95ZM73.58 35.345C72.65 35.345 71.92 35.67 71.39 36.32C70.86 36.97 70.595 37.88 70.595 39.05C70.595 40.22 70.86 41.13 71.39 41.78C71.92 42.43 72.65 42.755 73.58 42.755C74.52 42.755 75.255 42.43 75.785 41.78C76.315 41.13 76.58 40.22 76.58 39.05C76.58 37.88 76.315 36.97 75.785 36.32C75.255 35.67 74.52 35.345 73.58 35.345ZM84.3982 36.35C85.2282 36.35 85.9032 36.59 86.4232 37.07C86.9532 37.55 87.2182 38.24 87.2182 39.14V44H85.6132V39.65C85.6132 38.33 85.0782 37.67 84.0082 37.67C83.4482 37.67 82.9682 37.865 82.5682 38.255C82.1682 38.635 81.9682 39.225 81.9682 40.025V44H80.3632V36.5H81.7882L81.8632 37.745C82.1132 37.275 82.4582 36.925 82.8982 36.695C83.3382 36.465 83.8382 36.35 84.3982 36.35ZM91.2103 41.81C91.2103 42.18 91.2653 42.44 91.3753 42.59C91.4853 42.73 91.6903 42.8 91.9903 42.8C92.1803 42.8 92.3403 42.79 92.4703 42.77C92.6103 42.74 92.7803 42.685 92.9803 42.605L92.8003 43.895C92.4603 44.065 92.0453 44.15 91.5553 44.15C90.8853 44.15 90.3903 43.98 90.0703 43.64C89.7603 43.3 89.6053 42.765 89.6053 42.035V33.125H91.2103V41.81ZM97.4366 44.885C97.1066 45.745 96.7316 46.35 96.3116 46.7C95.8916 47.05 95.3416 47.225 94.6616 47.225C94.2716 47.225 93.9316 47.175 93.6416 47.075C93.3616 46.985 93.1116 46.835 92.8916 46.625L93.3566 45.395C93.6566 45.755 94.0666 45.935 94.5866 45.935C94.8866 45.935 95.1366 45.855 95.3366 45.695C95.5466 45.545 95.7316 45.265 95.8916 44.855L96.2216 44.045L95.4416 42.185L93.1016 36.5H94.9016L96.5516 41.21L96.9866 42.62L97.4966 41.075L99.0566 36.5H100.722L97.4366 44.885Z" fill="white"/>
<rect width="33" height="18" fill="black" fill-opacity="0" transform="translate(18 22)"/>
<path fill-rule="evenodd" clip-rule="evenodd" d="M51 31C51 31 43.6128 40 34.5 40C25.3872 40 18 31 18 31C18 31 25.3872 22 34.5 22C43.6128 22 51 31 51 31Z" stroke="white" stroke-linejoin="round"/>
<path fill-rule="evenodd" clip-rule="evenodd" d="M43 31C43 35.9706 38.9706 40 34 40C29.0294 40 25 35.9706 25 31C25 26.0294 29.0294 22 34 22C38.9706 22 43 26.0294 43 31Z" stroke="white" stroke-linejoin="round"/>
<path fill-rule="evenodd" clip-rule="evenodd" d="M40 31C40 34.3136 37.3136 37 34 37C30.6864 37 28 34.3136 28 31C28 27.6864 30.6864 25 34 25C37.3136 25 40 27.6864 40 31Z" stroke="white" stroke-linejoin="round"/>
<path d="M31 31C31 29.3435 32.3435 28 34 28" stroke="white" stroke-linejoin="round"/>
</svg>
