<svg width="335" height="189" viewBox="0 0 335 189" fill="none" xmlns="http://www.w3.org/2000/svg">
<path opacity="0.2" fill-rule="evenodd" clip-rule="evenodd" d="M0 0H335V189H0V0Z" fill="black"/>
<g clip-path="url(#clip0)">
<path d="M15.874 17.632C15.41 19.152 14.586 20.304 13.402 21.088C12.218 21.856 10.802 22.24 9.154 22.24C7.602 22.24 6.25 21.912 5.098 21.256C3.946 20.6 3.058 19.664 2.434 18.448C1.826 17.216 1.522 15.76 1.522 14.08C1.522 12.4 1.826 10.952 2.434 9.736C3.058 8.504 3.938 7.56 5.074 6.904C6.226 6.248 7.57 5.92 9.106 5.92C10.754 5.92 12.146 6.264 13.282 6.952C14.434 7.64 15.226 8.664 15.658 10.024L12.658 11.296C12.402 10.352 12.002 9.672 11.458 9.256C10.914 8.84 10.178 8.632 9.25 8.632C7.906 8.632 6.85 9.104 6.082 10.048C5.33 10.992 4.954 12.336 4.954 14.08C4.954 15.824 5.322 17.168 6.058 18.112C6.794 19.056 7.834 19.528 9.178 19.528C11.114 19.528 12.33 18.592 12.826 16.72L15.874 17.632ZM25.1528 9.76C25.7128 9.76 26.1448 9.848 26.4488 10.024L26.0408 12.904C25.6728 12.664 25.1688 12.544 24.5288 12.544C23.7448 12.544 23.0648 12.832 22.4888 13.408C21.9288 13.968 21.6488 14.76 21.6488 15.784V22H18.3608V10H21.2168L21.4328 12.352C22.0888 10.624 23.3288 9.76 25.1528 9.76ZM39.4594 15.952C39.4594 16.4 39.4274 16.832 39.3634 17.248H30.8674C31.2034 18.944 32.2034 19.792 33.8674 19.792C34.5554 19.792 35.1234 19.664 35.5714 19.408C36.0194 19.152 36.3314 18.784 36.5074 18.304L39.1954 19.288C38.8114 20.248 38.1634 20.984 37.2514 21.496C36.3554 21.992 35.2274 22.24 33.8674 22.24C31.8834 22.24 30.3474 21.696 29.2594 20.608C28.1714 19.504 27.6274 17.968 27.6274 16C27.6274 14.032 28.1554 12.504 29.2114 11.416C30.2674 10.312 31.7554 9.76 33.6754 9.76C35.5314 9.76 36.9554 10.296 37.9474 11.368C38.9554 12.44 39.4594 13.968 39.4594 15.952ZM33.6514 12.184C32.8514 12.184 32.2114 12.416 31.7314 12.88C31.2674 13.344 30.9714 14.032 30.8434 14.944H36.4354C36.3074 14.048 36.0034 13.368 35.5234 12.904C35.0434 12.424 34.4194 12.184 33.6514 12.184ZM53.1882 20.008C53.5242 20.008 53.7962 19.976 54.0042 19.912L53.7642 21.904C53.3162 22.128 52.7962 22.24 52.2042 22.24C50.6682 22.24 49.7482 21.64 49.4442 20.44C49.0922 21.032 48.5482 21.48 47.8122 21.784C47.0762 22.088 46.2042 22.24 45.1962 22.24C44.0282 22.24 43.1162 21.976 42.4602 21.448C41.8042 20.92 41.4762 20.16 41.4762 19.168C41.4762 17.216 43.0362 15.952 46.1562 15.376L49.0362 14.824V14.248C49.0362 13.608 48.8522 13.104 48.4842 12.736C48.1322 12.352 47.6362 12.16 46.9962 12.16C46.2602 12.16 45.6602 12.32 45.1962 12.64C44.7322 12.96 44.4122 13.48 44.2362 14.2L41.6202 13.096C41.8762 12.056 42.4522 11.24 43.3482 10.648C44.2442 10.056 45.4122 9.76 46.8522 9.76C48.5642 9.76 49.9002 10.136 50.8602 10.888C51.8202 11.624 52.3002 12.72 52.3002 14.176V19.096C52.3002 19.416 52.3722 19.648 52.5162 19.792C52.6602 19.936 52.8842 20.008 53.1882 20.008ZM46.2282 20.008C46.9322 20.008 47.5722 19.84 48.1482 19.504C48.7402 19.152 49.0362 18.68 49.0362 18.088V16.84L46.4682 17.416C45.9242 17.544 45.5162 17.72 45.2442 17.944C44.9882 18.152 44.8602 18.448 44.8602 18.832C44.8602 19.216 44.9802 19.512 45.2202 19.72C45.4602 19.912 45.7962 20.008 46.2282 20.008ZM63.7647 21.256C63.3807 21.56 62.8927 21.8 62.3007 21.976C61.7247 22.152 61.1167 22.24 60.4767 22.24C57.8047 22.24 56.4687 21.032 56.4687 18.616V12.448H54.2847V10H56.4687V7.24L59.7567 6.328V10H63.6447V12.448H59.7567V18.088C59.7567 19.192 60.3087 19.744 61.4127 19.744C62.1167 19.744 62.7327 19.52 63.2607 19.072L63.7647 21.256ZM77.0297 15.952C77.0297 16.4 76.9977 16.832 76.9338 17.248H68.4377C68.7738 18.944 69.7738 19.792 71.4377 19.792C72.1258 19.792 72.6938 19.664 73.1418 19.408C73.5898 19.152 73.9018 18.784 74.0778 18.304L76.7657 19.288C76.3818 20.248 75.7338 20.984 74.8217 21.496C73.9258 21.992 72.7977 22.24 71.4377 22.24C69.4537 22.24 67.9177 21.696 66.8298 20.608C65.7418 19.504 65.1978 17.968 65.1978 16C65.1978 14.032 65.7258 12.504 66.7818 11.416C67.8378 10.312 69.3258 9.76 71.2458 9.76C73.1018 9.76 74.5258 10.296 75.5178 11.368C76.5257 12.44 77.0297 13.968 77.0297 15.952ZM71.2217 12.184C70.4217 12.184 69.7817 12.416 69.3017 12.88C68.8377 13.344 68.5417 14.032 68.4138 14.944H74.0057C73.8777 14.048 73.5738 13.368 73.0938 12.904C72.6137 12.424 71.9897 12.184 71.2217 12.184ZM93.8097 22H89.9937L85.3857 6.16H88.9617L92.0337 19.384L95.2017 6.16H98.3697L101.586 19.384L104.658 6.16H108.066L103.458 22H99.7377L97.5297 13.36L96.7857 9.616H96.7377L95.9937 13.36L93.8097 22ZM120.29 20.008C120.626 20.008 120.898 19.976 121.106 19.912L120.866 21.904C120.418 22.128 119.898 22.24 119.306 22.24C117.77 22.24 116.85 21.64 116.546 20.44C116.194 21.032 115.65 21.48 114.914 21.784C114.178 22.088 113.306 22.24 112.298 22.24C111.13 22.24 110.218 21.976 109.562 21.448C108.906 20.92 108.578 20.16 108.578 19.168C108.578 17.216 110.138 15.952 113.258 15.376L116.138 14.824V14.248C116.138 13.608 115.954 13.104 115.586 12.736C115.234 12.352 114.738 12.16 114.098 12.16C113.362 12.16 112.762 12.32 112.298 12.64C111.834 12.96 111.514 13.48 111.338 14.2L108.722 13.096C108.978 12.056 109.554 11.24 110.45 10.648C111.346 10.056 112.514 9.76 113.954 9.76C115.666 9.76 117.002 10.136 117.962 10.888C118.922 11.624 119.402 12.72 119.402 14.176V19.096C119.402 19.416 119.474 19.648 119.618 19.792C119.762 19.936 119.986 20.008 120.29 20.008ZM113.33 20.008C114.034 20.008 114.674 19.84 115.25 19.504C115.842 19.152 116.138 18.68 116.138 18.088V16.84L113.57 17.416C113.026 17.544 112.618 17.72 112.346 17.944C112.09 18.152 111.962 18.448 111.962 18.832C111.962 19.216 112.082 19.512 112.322 19.72C112.562 19.912 112.898 20.008 113.33 20.008ZM126.343 18.184C126.343 18.76 126.423 19.16 126.583 19.384C126.759 19.608 127.071 19.72 127.519 19.72C127.791 19.72 128.023 19.704 128.215 19.672C128.423 19.624 128.663 19.552 128.935 19.456L128.647 21.736C128.391 21.896 128.055 22.016 127.639 22.096C127.223 22.192 126.815 22.24 126.415 22.24C125.247 22.24 124.391 21.96 123.847 21.4C123.319 20.824 123.055 19.912 123.055 18.664V4.744H126.343V18.184ZM134.007 18.184C134.007 18.76 134.087 19.16 134.247 19.384C134.423 19.608 134.735 19.72 135.183 19.72C135.455 19.72 135.687 19.704 135.879 19.672C136.087 19.624 136.327 19.552 136.599 19.456L136.311 21.736C136.055 21.896 135.719 22.016 135.303 22.096C134.887 22.192 134.479 22.24 134.079 22.24C132.911 22.24 132.055 21.96 131.511 21.4C130.983 20.824 130.719 19.912 130.719 18.664V4.744H134.007V18.184ZM149.639 15.952C149.639 16.4 149.607 16.832 149.543 17.248H141.047C141.383 18.944 142.383 19.792 144.047 19.792C144.735 19.792 145.303 19.664 145.751 19.408C146.199 19.152 146.511 18.784 146.687 18.304L149.375 19.288C148.991 20.248 148.343 20.984 147.431 21.496C146.535 21.992 145.407 22.24 144.047 22.24C142.063 22.24 140.527 21.696 139.439 20.608C138.351 19.504 137.807 17.968 137.807 16C137.807 14.032 138.335 12.504 139.391 11.416C140.447 10.312 141.935 9.76 143.855 9.76C145.711 9.76 147.135 10.296 148.127 11.368C149.135 12.44 149.639 13.968 149.639 15.952ZM143.831 12.184C143.031 12.184 142.391 12.416 141.911 12.88C141.447 13.344 141.151 14.032 141.023 14.944H146.615C146.487 14.048 146.183 13.368 145.703 12.904C145.223 12.424 144.599 12.184 143.831 12.184ZM160.421 21.256C160.037 21.56 159.549 21.8 158.957 21.976C158.381 22.152 157.773 22.24 157.133 22.24C154.461 22.24 153.125 21.032 153.125 18.616V12.448H150.941V10H153.125V7.24L156.413 6.328V10H160.301V12.448H156.413V18.088C156.413 19.192 156.965 19.744 158.069 19.744C158.773 19.744 159.389 19.52 159.917 19.072L160.421 21.256Z" transform="translate(88 118)" fill="white"/>
<path d="M58.7945 19V33H6.08219C2.72381 33 0 30.313 0 27V0" transform="translate(143.481 77.3396)" stroke="white" stroke-width="2"/>
<path d="M0 0H43.0822V14" transform="translate(159.193 68.3396)" stroke="white" stroke-width="2"/>
<path d="M5.06849 9V0H0" transform="translate(197.207 56.3396)" stroke="white" stroke-width="2"/>
<path fill-rule="evenodd" clip-rule="evenodd" d="M6.08219 3C6.08219 4.657 4.71978 6 3.0411 6C1.36241 6 0 4.657 0 3C0 1.343 1.36241 0 3.0411 0C4.71978 0 6.08219 1.343 6.08219 3Z" transform="translate(180.988 86.3396)" stroke="white" stroke-width="2"/>
<path d="M2.0274 0H0" transform="translate(195.18 72.3396)" stroke="white" stroke-width="2"/>
<path d="M2.0274 0H0" transform="translate(191.125 72.3396)" stroke="white" stroke-width="2"/>
<path d="M2.0274 0H0" transform="translate(187.07 72.3396)" stroke="white" stroke-width="2"/>
<path d="M2.0274 0H0" transform="translate(183.016 72.3396)" stroke="white" stroke-width="2"/>
<path d="M2.0274 0H0" transform="translate(178.961 72.3396)" stroke="white" stroke-width="2"/>
<path d="M2.0274 0H0" transform="translate(174.906 72.3396)" stroke="white" stroke-width="2"/>
<path d="M2.0274 0H0" transform="translate(170.852 72.3396)" stroke="white" stroke-width="2"/>
<path d="M2.0274 0H0" transform="translate(166.797 72.3396)" stroke="white" stroke-width="2"/>
<path d="M2.0274 0H0" transform="translate(162.742 72.3396)" stroke="white" stroke-width="2"/>
<path d="M2.0274 0H0" transform="translate(158.688 72.3396)" stroke="white" stroke-width="2"/>
<path d="M2.0274 0H0" transform="translate(154.632 72.3396)" stroke="white" stroke-width="2"/>
<path d="M2.0274 0H0" transform="translate(195.18 72.3396)" stroke="white" stroke-width="2"/>
<path d="M2.0274 0H0" transform="translate(191.125 72.3396)" stroke="white" stroke-width="2"/>
<path d="M2.0274 0H0" transform="translate(187.07 72.3396)" stroke="white" stroke-width="2"/>
<path d="M2.0274 0H0" transform="translate(183.016 72.3396)" stroke="white" stroke-width="2"/>
<path d="M2.0274 0H0" transform="translate(178.961 72.3396)" stroke="white" stroke-width="2"/>
<path d="M2.0274 0H0" transform="translate(174.906 72.3396)" stroke="white" stroke-width="2"/>
<path d="M2.0274 0H0" transform="translate(170.852 72.3396)" stroke="white" stroke-width="2"/>
<path d="M2.0274 0H0" transform="translate(166.797 72.3396)" stroke="white" stroke-width="2"/>
<path d="M2.0274 0H0" transform="translate(162.742 72.3396)" stroke="white" stroke-width="2"/>
<path d="M2.0274 0H0" transform="translate(158.688 72.3396)" stroke="white" stroke-width="2"/>
<path d="M2.0274 0H0" transform="translate(154.632 72.3396)" stroke="white" stroke-width="2"/>
<path d="M2.0274 0H0" transform="translate(195.18 106.34)" stroke="white" stroke-width="2"/>
<path d="M2.0274 0H0" transform="translate(191.125 106.34)" stroke="white" stroke-width="2"/>
<path d="M2.0274 0H0" transform="translate(187.07 106.34)" stroke="white" stroke-width="2"/>
<path d="M2.0274 0H0" transform="translate(183.016 106.34)" stroke="white" stroke-width="2"/>
<path d="M2.0274 0H0" transform="translate(178.961 106.34)" stroke="white" stroke-width="2"/>
<path d="M2.0274 0H0" transform="translate(174.906 106.34)" stroke="white" stroke-width="2"/>
<path d="M2.0274 0H0" transform="translate(170.852 106.34)" stroke="white" stroke-width="2"/>
<path d="M2.0274 0H0" transform="translate(166.797 106.34)" stroke="white" stroke-width="2"/>
<path d="M2.0274 0H0" transform="translate(162.742 106.34)" stroke="white" stroke-width="2"/>
<path d="M2.0274 0H0" transform="translate(158.688 106.34)" stroke="white" stroke-width="2"/>
<path d="M2.0274 0H0" transform="translate(154.632 106.34)" stroke="white" stroke-width="2"/>
<path d="M2.0274 0H0" transform="translate(150.577 106.34)" stroke="white" stroke-width="2"/>
<path d="M2.0274 0H0" transform="translate(195.18 106.34)" stroke="white" stroke-width="2"/>
<path d="M2.0274 0H0" transform="translate(191.125 106.34)" stroke="white" stroke-width="2"/>
<path d="M2.0274 0H0" transform="translate(187.07 106.34)" stroke="white" stroke-width="2"/>
<path d="M2.0274 0H0" transform="translate(183.016 106.34)" stroke="white" stroke-width="2"/>
<path d="M2.0274 0H0" transform="translate(178.961 106.34)" stroke="white" stroke-width="2"/>
<path d="M2.0274 0H0" transform="translate(174.906 106.34)" stroke="white" stroke-width="2"/>
<path d="M2.0274 0H0" transform="translate(170.852 106.34)" stroke="white" stroke-width="2"/>
<path d="M2.0274 0H0" transform="translate(166.797 106.34)" stroke="white" stroke-width="2"/>
<path d="M2.0274 0H0" transform="translate(162.742 106.34)" stroke="white" stroke-width="2"/>
<path d="M2.0274 0H0" transform="translate(158.688 106.34)" stroke="white" stroke-width="2"/>
<path d="M2.0274 0H0" transform="translate(154.632 106.34)" stroke="white" stroke-width="2"/>
<path d="M2.0274 0H0" transform="translate(150.577 106.34)" stroke="white" stroke-width="2"/>
<path d="M25.3425 0H26.3562C28.0348 0 29.3973 1.343 29.3973 3C29.3973 4.657 28.0348 6 26.3562 6H7.09589C3.17693 6 0 9.134 0 13C0 16.866 3.17693 20 7.09589 20H26.3562C28.0348 20 29.3973 18.657 29.3973 17V3" transform="translate(176.934 76.3396)" stroke="white" stroke-width="2"/>
<path d="M0 6V0H34.4658V5" transform="translate(159.701 54.3396)" stroke="white" stroke-width="2"/>
<path d="M29.3973 3V0H0" transform="translate(158.688 60.3396)" stroke="white" stroke-width="2"/>
<path d="M11.1507 0H0" transform="translate(191.125 62.3396)" stroke="white" stroke-width="2"/>
<path d="M0 0V3" transform="translate(171.865 54.3396)" stroke="white" stroke-width="2"/>
<path d="M0 0V3" transform="translate(175.92 54.3396)" stroke="white" stroke-width="2"/>
<path d="M0 0V3" transform="translate(179.975 54.3396)" stroke="white" stroke-width="2"/>
<path d="M0 0V3" transform="translate(184.029 54.3396)" stroke="white" stroke-width="2"/>
<path d="M0 0V3" transform="translate(188.084 54.3396)" stroke="white" stroke-width="2"/>
<path d="M0 0V3" transform="translate(163.756 54.3396)" stroke="white" stroke-width="2"/>
<path d="M0 0V3" transform="translate(165.783 60.3396)" stroke="white" stroke-width="2"/>
<path d="M0 0V3" transform="translate(169.838 60.3396)" stroke="white" stroke-width="2"/>
<path d="M0 0V3" transform="translate(173.893 60.3396)" stroke="white" stroke-width="2"/>
<path d="M0 0V3" transform="translate(177.947 60.3396)" stroke="white" stroke-width="2"/>
<path d="M0 0V3" transform="translate(182.002 60.3396)" stroke="white" stroke-width="2"/>
<path fill-rule="evenodd" clip-rule="evenodd" d="M10.432 22.679L8.74923 20.681L6.05077 21.542L5.17797 18.88L2.5829 18.643L2.82315 16.082L0.330466 14.748L1.68274 12.289L0 10.291L2.02537 8.631L1.15359 5.969L3.85205 5.109L4.0923 2.548L6.68838 2.785L8.04066 0.325L10.5333 1.66L12.5587 0L14.2415 1.998L16.9399 1.137L17.8117 3.8L20.4078 4.036L20.1675 6.597L22.6602 7.931L21.3079 10.39L22.9907 12.388L20.9653 14.048L21.8371 16.71L19.1386 17.571L18.8984 20.131L16.3023 19.894L14.95 22.354L12.4573 21.019L10.432 22.679Z" transform="translate(133 51)" stroke="white" stroke-width="2"/>
</g>
<defs>
<clipPath id="clip0">
<rect width="161" height="97.5918" fill="white" transform="translate(88 49.4082)"/>
</clipPath>
</defs>
</svg>
