<svg width="335" height="60" viewBox="0 0 335 60" fill="none" xmlns="http://www.w3.org/2000/svg">
<rect width="335" height="60" fill="black" fill-opacity="0"/>
<path opacity="0.2" fill-rule="evenodd" clip-rule="evenodd" d="M0 0H335V60H0V0Z" fill="black"/>
<path d="M71.075 35H69.47V25.1H71.075V35ZM82.7724 27.35C83.2724 27.35 83.7324 27.455 84.1524 27.665C84.5724 27.865 84.9074 28.175 85.1574 28.595C85.4074 29.015 85.5324 29.53 85.5324 30.14V35H83.9274V30.395C83.9274 29.805 83.7874 29.37 83.5074 29.09C83.2274 28.81 82.8524 28.67 82.3824 28.67C81.8324 28.67 81.3674 28.87 80.9874 29.27C80.6174 29.67 80.4324 30.22 80.4324 30.92V35H78.8274V30.395C78.8274 29.805 78.6874 29.37 78.4074 29.09C78.1274 28.81 77.7524 28.67 77.2824 28.67C76.9624 28.67 76.6524 28.755 76.3524 28.925C76.0524 29.085 75.8074 29.34 75.6174 29.69C75.4274 30.04 75.3324 30.48 75.3324 31.01V35H73.7274V27.5H75.1524L75.2274 28.745C75.4774 28.285 75.8174 27.94 76.2474 27.71C76.6774 27.47 77.1474 27.35 77.6574 27.35C78.2174 27.35 78.7224 27.48 79.1724 27.74C79.6324 27.99 79.9724 28.36 80.1924 28.85C80.4224 28.36 80.7724 27.99 81.2424 27.74C81.7224 27.48 82.2324 27.35 82.7724 27.35ZM92.0007 27.35C93.0307 27.35 93.8407 27.695 94.4307 28.385C95.0207 29.065 95.3157 30.015 95.3157 31.235C95.3157 32.455 95.0207 33.415 94.4307 34.115C93.8407 34.805 93.0307 35.15 92.0007 35.15C91.4607 35.15 90.9757 35.03 90.5457 34.79C90.1257 34.55 89.8007 34.22 89.5707 33.8V38.15H87.9657V27.5H89.3757L89.4507 28.895C89.6707 28.425 90.0007 28.05 90.4407 27.77C90.8907 27.49 91.4107 27.35 92.0007 27.35ZM91.6407 33.845C92.2907 33.845 92.7957 33.62 93.1557 33.17C93.5257 32.71 93.7107 32.07 93.7107 31.25C93.7107 30.43 93.5257 29.79 93.1557 29.33C92.7957 28.87 92.2907 28.64 91.6407 28.64C91.0307 28.64 90.5407 28.845 90.1707 29.255C89.8107 29.665 89.6107 30.235 89.5707 30.965V31.535C89.6107 32.255 89.8107 32.82 90.1707 33.23C90.5407 33.64 91.0307 33.845 91.6407 33.845ZM100.699 27.35C101.869 27.35 102.784 27.695 103.444 28.385C104.104 29.075 104.434 30.03 104.434 31.25C104.434 32.47 104.104 33.425 103.444 34.115C102.784 34.805 101.869 35.15 100.699 35.15C99.5293 35.15 98.6143 34.805 97.9543 34.115C97.2943 33.425 96.9643 32.47 96.9643 31.25C96.9643 30.03 97.2943 29.075 97.9543 28.385C98.6143 27.695 99.5293 27.35 100.699 27.35ZM100.699 28.61C100.019 28.61 99.4943 28.84 99.1243 29.3C98.7643 29.75 98.5843 30.4 98.5843 31.25C98.5843 32.1 98.7643 32.755 99.1243 33.215C99.4943 33.665 100.019 33.89 100.699 33.89C101.379 33.89 101.904 33.66 102.274 33.2C102.644 32.74 102.829 32.09 102.829 31.25C102.829 30.41 102.644 29.76 102.274 29.3C101.904 28.84 101.379 28.61 100.699 28.61ZM110.366 27.35C110.716 27.35 110.991 27.4 111.191 27.5L110.936 28.97C110.706 28.84 110.391 28.775 109.991 28.775C109.671 28.775 109.366 28.86 109.076 29.03C108.796 29.2 108.561 29.455 108.371 29.795C108.191 30.135 108.101 30.545 108.101 31.025V35H106.496V27.5H107.861L107.996 28.85C108.416 27.85 109.206 27.35 110.366 27.35ZM117.186 34.505C116.946 34.705 116.651 34.865 116.301 34.985C115.961 35.095 115.591 35.15 115.191 35.15C114.501 35.15 113.946 34.98 113.526 34.64C113.116 34.29 112.906 33.75 112.896 33.02V28.76H111.471V27.5H112.896V25.745L114.501 25.295V27.5H117.126V28.76H114.501V32.75C114.501 33.11 114.596 33.38 114.786 33.56C114.986 33.73 115.256 33.815 115.596 33.815C116.056 33.815 116.461 33.655 116.811 33.335L117.186 34.505ZM129.81 27.5L126.825 35H125.07L122.07 27.5H123.84L125.955 33.695L128.13 27.5H129.81ZM131.989 26.24C131.649 26.24 131.384 26.155 131.194 25.985C131.004 25.805 130.909 25.555 130.909 25.235C130.909 24.915 131.004 24.67 131.194 24.5C131.384 24.33 131.649 24.245 131.989 24.245C132.329 24.245 132.589 24.33 132.769 24.5C132.959 24.67 133.054 24.915 133.054 25.235C133.054 25.555 132.959 25.805 132.769 25.985C132.589 26.155 132.329 26.24 131.989 26.24ZM132.784 35H131.179V27.5H132.784V35ZM141.775 33.95C141.995 33.95 142.18 33.93 142.33 33.89L142.225 34.97C141.955 35.09 141.645 35.15 141.295 35.15C140.865 35.15 140.52 35.065 140.26 34.895C140.01 34.725 139.845 34.44 139.765 34.04C139.535 34.39 139.195 34.665 138.745 34.865C138.295 35.055 137.79 35.15 137.23 35.15C136.5 35.15 135.91 34.98 135.46 34.64C135.01 34.3 134.785 33.815 134.785 33.185C134.785 32.595 135.03 32.1 135.52 31.7C136.01 31.29 136.74 31 137.71 30.83L139.615 30.5V30.095C139.615 29.635 139.48 29.275 139.21 29.015C138.94 28.745 138.565 28.61 138.085 28.61C137.095 28.61 136.45 29.06 136.15 29.96L134.905 29.3C135.085 28.7 135.45 28.225 136 27.875C136.56 27.525 137.245 27.35 138.055 27.35C139.025 27.35 139.795 27.575 140.365 28.025C140.935 28.475 141.22 29.135 141.22 30.005V33.395C141.22 33.585 141.26 33.725 141.34 33.815C141.43 33.905 141.575 33.95 141.775 33.95ZM137.575 33.935C138.115 33.935 138.59 33.805 139 33.545C139.41 33.285 139.615 32.94 139.615 32.51V31.61L137.98 31.94C137.46 32.04 137.075 32.18 136.825 32.36C136.575 32.54 136.45 32.78 136.45 33.08C136.45 33.36 136.545 33.575 136.735 33.725C136.935 33.865 137.215 33.935 137.575 33.935ZM152.484 25.1C153.554 25.1 154.399 25.375 155.019 25.925C155.649 26.475 155.964 27.23 155.964 28.19C155.964 29.15 155.649 29.905 155.019 30.455C154.399 30.995 153.554 31.265 152.484 31.265H150.279V35H148.674V25.1H152.484ZM152.229 29.9C152.929 29.9 153.449 29.76 153.789 29.48C154.129 29.19 154.299 28.76 154.299 28.19C154.299 27.04 153.609 26.465 152.229 26.465H150.279V29.9H152.229ZM161.723 27.35C162.073 27.35 162.348 27.4 162.548 27.5L162.293 28.97C162.063 28.84 161.748 28.775 161.348 28.775C161.028 28.775 160.723 28.86 160.433 29.03C160.153 29.2 159.918 29.455 159.728 29.795C159.548 30.135 159.458 30.545 159.458 31.025V35H157.853V27.5H159.218L159.353 28.85C159.773 27.85 160.563 27.35 161.723 27.35ZM164.874 26.24C164.534 26.24 164.269 26.155 164.079 25.985C163.889 25.805 163.794 25.555 163.794 25.235C163.794 24.915 163.889 24.67 164.079 24.5C164.269 24.33 164.534 24.245 164.874 24.245C165.214 24.245 165.474 24.33 165.654 24.5C165.844 24.67 165.939 24.915 165.939 25.235C165.939 25.555 165.844 25.805 165.654 25.985C165.474 26.155 165.214 26.24 164.874 26.24ZM165.669 35H164.064V27.5H165.669V35ZM174.796 27.5L171.811 35H170.056L167.056 27.5H168.826L170.941 33.695L173.116 27.5H174.796ZM182.454 33.95C182.674 33.95 182.859 33.93 183.009 33.89L182.904 34.97C182.634 35.09 182.324 35.15 181.974 35.15C181.544 35.15 181.199 35.065 180.939 34.895C180.689 34.725 180.524 34.44 180.444 34.04C180.214 34.39 179.874 34.665 179.424 34.865C178.974 35.055 178.469 35.15 177.909 35.15C177.179 35.15 176.589 34.98 176.139 34.64C175.689 34.3 175.464 33.815 175.464 33.185C175.464 32.595 175.709 32.1 176.199 31.7C176.689 31.29 177.419 31 178.389 30.83L180.294 30.5V30.095C180.294 29.635 180.159 29.275 179.889 29.015C179.619 28.745 179.244 28.61 178.764 28.61C177.774 28.61 177.129 29.06 176.829 29.96L175.584 29.3C175.764 28.7 176.129 28.225 176.679 27.875C177.239 27.525 177.924 27.35 178.734 27.35C179.704 27.35 180.474 27.575 181.044 28.025C181.614 28.475 181.899 29.135 181.899 30.005V33.395C181.899 33.585 181.939 33.725 182.019 33.815C182.109 33.905 182.254 33.95 182.454 33.95ZM178.254 33.935C178.794 33.935 179.269 33.805 179.679 33.545C180.089 33.285 180.294 32.94 180.294 32.51V31.61L178.659 31.94C178.139 32.04 177.754 32.18 177.504 32.36C177.254 32.54 177.129 32.78 177.129 33.08C177.129 33.36 177.224 33.575 177.414 33.725C177.614 33.865 177.894 33.935 178.254 33.935ZM189.095 34.505C188.855 34.705 188.56 34.865 188.21 34.985C187.87 35.095 187.5 35.15 187.1 35.15C186.41 35.15 185.855 34.98 185.435 34.64C185.025 34.29 184.815 33.75 184.805 33.02V28.76H183.38V27.5H184.805V25.745L186.41 25.295V27.5H189.035V28.76H186.41V32.75C186.41 33.11 186.505 33.38 186.695 33.56C186.895 33.73 187.165 33.815 187.505 33.815C187.965 33.815 188.37 33.655 188.72 33.335L189.095 34.505ZM197.298 31.025C197.298 31.315 197.278 31.59 197.238 31.85H191.748C191.838 32.51 192.073 33.015 192.453 33.365C192.833 33.705 193.323 33.875 193.923 33.875C194.413 33.875 194.818 33.79 195.138 33.62C195.468 33.44 195.693 33.185 195.813 32.855L197.148 33.41C196.588 34.57 195.513 35.15 193.923 35.15C192.743 35.15 191.818 34.805 191.148 34.115C190.488 33.425 190.158 32.47 190.158 31.25C190.158 30.02 190.478 29.065 191.118 28.385C191.758 27.695 192.658 27.35 193.818 27.35C194.918 27.35 195.773 27.685 196.383 28.355C196.993 29.025 197.298 29.915 197.298 31.025ZM193.818 28.625C193.238 28.625 192.768 28.795 192.408 29.135C192.058 29.475 191.838 29.97 191.748 30.62H195.798C195.718 29.99 195.503 29.5 195.153 29.15C194.813 28.8 194.368 28.625 193.818 28.625ZM207.621 30.23L206.016 31.955V35H204.411V25.1H206.016V30.02L210.561 25.1H212.526L208.776 29.15L212.616 35H210.726L207.621 30.23ZM220.281 31.025C220.281 31.315 220.261 31.59 220.221 31.85H214.731C214.821 32.51 215.056 33.015 215.436 33.365C215.816 33.705 216.306 33.875 216.906 33.875C217.396 33.875 217.801 33.79 218.121 33.62C218.451 33.44 218.676 33.185 218.796 32.855L220.131 33.41C219.571 34.57 218.496 35.15 216.906 35.15C215.726 35.15 214.801 34.805 214.131 34.115C213.471 33.425 213.141 32.47 213.141 31.25C213.141 30.02 213.461 29.065 214.101 28.385C214.741 27.695 215.641 27.35 216.801 27.35C217.901 27.35 218.756 27.685 219.366 28.355C219.976 29.025 220.281 29.915 220.281 31.025ZM216.801 28.625C216.221 28.625 215.751 28.795 215.391 29.135C215.041 29.475 214.821 29.97 214.731 30.62H218.781C218.701 29.99 218.486 29.5 218.136 29.15C217.796 28.8 217.351 28.625 216.801 28.625ZM225.42 35.885C225.09 36.745 224.715 37.35 224.295 37.7C223.875 38.05 223.325 38.225 222.645 38.225C222.255 38.225 221.915 38.175 221.625 38.075C221.345 37.985 221.095 37.835 220.875 37.625L221.34 36.395C221.64 36.755 222.05 36.935 222.57 36.935C222.87 36.935 223.12 36.855 223.32 36.695C223.53 36.545 223.715 36.265 223.875 35.855L224.205 35.045L223.425 33.185L221.085 27.5H222.885L224.535 32.21L224.97 33.62L225.48 32.075L227.04 27.5H228.705L225.42 35.885Z" fill="white"/>
<rect width="31" height="21" fill="black" fill-opacity="0" transform="translate(19 19)"/>
<path fill-rule="evenodd" clip-rule="evenodd" d="M48.5 19C49.328 19 50 19.672 50 20.5V38.5C50 39.328 49.328 40 48.5 40H20.5C19.672 40 19 39.328 19 38.5V20.5C19 19.672 19.672 19 20.5 19H48.5Z" stroke="white"/>
<path d="M28.5 31H39L40.5 32.5L38 35H37L36 34L35 35H34L33 34L32 35H31L30 34" stroke="white"/>
<path d="M24 31.5V33.5" stroke="white"/>
<path fill-rule="evenodd" clip-rule="evenodd" d="M28.5 32.5C28.5 34.433 26.933 36 25 36C23.067 36 21.5 34.433 21.5 32.5C21.5 30.567 23.067 29 25 29C26.933 29 28.5 30.567 28.5 32.5Z" stroke="white"/>
<path d="M19 25H43" stroke="white"/>
<path d="M43 19V40" stroke="white"/>
<path fill-rule="evenodd" clip-rule="evenodd" d="M45 31.5L48 29.5L45 27.5V31.5Z" stroke="white"/>
<path d="M21.5 22H33.5" stroke="white"/>
<path d="M34.5 22H40.5" stroke="white"/>
</svg>
