<svg width="335" height="60" viewBox="0 0 335 60" fill="none" xmlns="http://www.w3.org/2000/svg">
<rect width="335" height="60" fill="black" fill-opacity="0"/>
<path opacity="0.2" fill-rule="evenodd" clip-rule="evenodd" d="M0 0H335V60H0V0Z" fill="black"/>
<path d="M71.075 34H69.47V24.1H71.075V34ZM82.7724 26.35C83.2724 26.35 83.7324 26.455 84.1524 26.665C84.5724 26.865 84.9074 27.175 85.1574 27.595C85.4074 28.015 85.5324 28.53 85.5324 29.14V34H83.9274V29.395C83.9274 28.805 83.7874 28.37 83.5074 28.09C83.2274 27.81 82.8524 27.67 82.3824 27.67C81.8324 27.67 81.3674 27.87 80.9874 28.27C80.6174 28.67 80.4324 29.22 80.4324 29.92V34H78.8274V29.395C78.8274 28.805 78.6874 28.37 78.4074 28.09C78.1274 27.81 77.7524 27.67 77.2824 27.67C76.9624 27.67 76.6524 27.755 76.3524 27.925C76.0524 28.085 75.8074 28.34 75.6174 28.69C75.4274 29.04 75.3324 29.48 75.3324 30.01V34H73.7274V26.5H75.1524L75.2274 27.745C75.4774 27.285 75.8174 26.94 76.2474 26.71C76.6774 26.47 77.1474 26.35 77.6574 26.35C78.2174 26.35 78.7224 26.48 79.1724 26.74C79.6324 26.99 79.9724 27.36 80.1924 27.85C80.4224 27.36 80.7724 26.99 81.2424 26.74C81.7224 26.48 82.2324 26.35 82.7724 26.35ZM92.0007 26.35C93.0307 26.35 93.8407 26.695 94.4307 27.385C95.0207 28.065 95.3157 29.015 95.3157 30.235C95.3157 31.455 95.0207 32.415 94.4307 33.115C93.8407 33.805 93.0307 34.15 92.0007 34.15C91.4607 34.15 90.9757 34.03 90.5457 33.79C90.1257 33.55 89.8007 33.22 89.5707 32.8V37.15H87.9657V26.5H89.3757L89.4507 27.895C89.6707 27.425 90.0007 27.05 90.4407 26.77C90.8907 26.49 91.4107 26.35 92.0007 26.35ZM91.6407 32.845C92.2907 32.845 92.7957 32.62 93.1557 32.17C93.5257 31.71 93.7107 31.07 93.7107 30.25C93.7107 29.43 93.5257 28.79 93.1557 28.33C92.7957 27.87 92.2907 27.64 91.6407 27.64C91.0307 27.64 90.5407 27.845 90.1707 28.255C89.8107 28.665 89.6107 29.235 89.5707 29.965V30.535C89.6107 31.255 89.8107 31.82 90.1707 32.23C90.5407 32.64 91.0307 32.845 91.6407 32.845ZM100.699 26.35C101.869 26.35 102.784 26.695 103.444 27.385C104.104 28.075 104.434 29.03 104.434 30.25C104.434 31.47 104.104 32.425 103.444 33.115C102.784 33.805 101.869 34.15 100.699 34.15C99.5293 34.15 98.6143 33.805 97.9543 33.115C97.2943 32.425 96.9643 31.47 96.9643 30.25C96.9643 29.03 97.2943 28.075 97.9543 27.385C98.6143 26.695 99.5293 26.35 100.699 26.35ZM100.699 27.61C100.019 27.61 99.4943 27.84 99.1243 28.3C98.7643 28.75 98.5843 29.4 98.5843 30.25C98.5843 31.1 98.7643 31.755 99.1243 32.215C99.4943 32.665 100.019 32.89 100.699 32.89C101.379 32.89 101.904 32.66 102.274 32.2C102.644 31.74 102.829 31.09 102.829 30.25C102.829 29.41 102.644 28.76 102.274 28.3C101.904 27.84 101.379 27.61 100.699 27.61ZM110.366 26.35C110.716 26.35 110.991 26.4 111.191 26.5L110.936 27.97C110.706 27.84 110.391 27.775 109.991 27.775C109.671 27.775 109.366 27.86 109.076 28.03C108.796 28.2 108.561 28.455 108.371 28.795C108.191 29.135 108.101 29.545 108.101 30.025V34H106.496V26.5H107.861L107.996 27.85C108.416 26.85 109.206 26.35 110.366 26.35ZM117.186 33.505C116.946 33.705 116.651 33.865 116.301 33.985C115.961 34.095 115.591 34.15 115.191 34.15C114.501 34.15 113.946 33.98 113.526 33.64C113.116 33.29 112.906 32.75 112.896 32.02V27.76H111.471V26.5H112.896V24.745L114.501 24.295V26.5H117.126V27.76H114.501V31.75C114.501 32.11 114.596 32.38 114.786 32.56C114.986 32.73 115.256 32.815 115.596 32.815C116.056 32.815 116.461 32.655 116.811 32.335L117.186 33.505ZM129.81 26.5L126.825 34H125.07L122.07 26.5H123.84L125.955 32.695L128.13 26.5H129.81ZM131.989 25.24C131.649 25.24 131.384 25.155 131.194 24.985C131.004 24.805 130.909 24.555 130.909 24.235C130.909 23.915 131.004 23.67 131.194 23.5C131.384 23.33 131.649 23.245 131.989 23.245C132.329 23.245 132.589 23.33 132.769 23.5C132.959 23.67 133.054 23.915 133.054 24.235C133.054 24.555 132.959 24.805 132.769 24.985C132.589 25.155 132.329 25.24 131.989 25.24ZM132.784 34H131.179V26.5H132.784V34ZM141.775 32.95C141.995 32.95 142.18 32.93 142.33 32.89L142.225 33.97C141.955 34.09 141.645 34.15 141.295 34.15C140.865 34.15 140.52 34.065 140.26 33.895C140.01 33.725 139.845 33.44 139.765 33.04C139.535 33.39 139.195 33.665 138.745 33.865C138.295 34.055 137.79 34.15 137.23 34.15C136.5 34.15 135.91 33.98 135.46 33.64C135.01 33.3 134.785 32.815 134.785 32.185C134.785 31.595 135.03 31.1 135.52 30.7C136.01 30.29 136.74 30 137.71 29.83L139.615 29.5V29.095C139.615 28.635 139.48 28.275 139.21 28.015C138.94 27.745 138.565 27.61 138.085 27.61C137.095 27.61 136.45 28.06 136.15 28.96L134.905 28.3C135.085 27.7 135.45 27.225 136 26.875C136.56 26.525 137.245 26.35 138.055 26.35C139.025 26.35 139.795 26.575 140.365 27.025C140.935 27.475 141.22 28.135 141.22 29.005V32.395C141.22 32.585 141.26 32.725 141.34 32.815C141.43 32.905 141.575 32.95 141.775 32.95ZM137.575 32.935C138.115 32.935 138.59 32.805 139 32.545C139.41 32.285 139.615 31.94 139.615 31.51V30.61L137.98 30.94C137.46 31.04 137.075 31.18 136.825 31.36C136.575 31.54 136.45 31.78 136.45 32.08C136.45 32.36 136.545 32.575 136.735 32.725C136.935 32.865 137.215 32.935 137.575 32.935ZM151.884 29.23L150.279 30.955V34H148.674V24.1H150.279V29.02L154.824 24.1H156.789L153.039 28.15L156.879 34H154.989L151.884 29.23ZM164.544 30.025C164.544 30.315 164.524 30.59 164.484 30.85H158.994C159.084 31.51 159.319 32.015 159.699 32.365C160.079 32.705 160.569 32.875 161.169 32.875C161.659 32.875 162.064 32.79 162.384 32.62C162.714 32.44 162.939 32.185 163.059 31.855L164.394 32.41C163.834 33.57 162.759 34.15 161.169 34.15C159.989 34.15 159.064 33.805 158.394 33.115C157.734 32.425 157.404 31.47 157.404 30.25C157.404 29.02 157.724 28.065 158.364 27.385C159.004 26.695 159.904 26.35 161.064 26.35C162.164 26.35 163.019 26.685 163.629 27.355C164.239 28.025 164.544 28.915 164.544 30.025ZM161.064 27.625C160.484 27.625 160.014 27.795 159.654 28.135C159.304 28.475 159.084 28.97 158.994 29.62H163.044C162.964 28.99 162.749 28.5 162.399 28.15C162.059 27.8 161.614 27.625 161.064 27.625ZM169.683 34.885C169.353 35.745 168.978 36.35 168.558 36.7C168.138 37.05 167.588 37.225 166.908 37.225C166.518 37.225 166.178 37.175 165.888 37.075C165.608 36.985 165.358 36.835 165.138 36.625L165.603 35.395C165.903 35.755 166.313 35.935 166.833 35.935C167.133 35.935 167.383 35.855 167.583 35.695C167.793 35.545 167.978 35.265 168.138 34.855L168.468 34.045L167.688 32.185L165.348 26.5H167.148L168.798 31.21L169.233 32.62L169.743 31.075L171.303 26.5H172.968L169.683 34.885ZM176.945 34.15C176.185 34.15 175.51 34.02 174.92 33.76C174.34 33.5 173.9 33.105 173.6 32.575L174.68 31.645C174.87 32.075 175.165 32.39 175.565 32.59C175.965 32.79 176.445 32.89 177.005 32.89C177.515 32.89 177.91 32.81 178.19 32.65C178.47 32.48 178.61 32.26 178.61 31.99C178.61 31.75 178.48 31.56 178.22 31.42C177.96 31.27 177.51 31.13 176.87 31C175.76 30.79 174.98 30.51 174.53 30.16C174.08 29.81 173.855 29.315 173.855 28.675C173.855 28.265 173.98 27.885 174.23 27.535C174.48 27.175 174.84 26.89 175.31 26.68C175.79 26.46 176.355 26.35 177.005 26.35C177.835 26.35 178.5 26.49 179 26.77C179.5 27.04 179.885 27.465 180.155 28.045L179.015 28.885C178.835 28.445 178.58 28.125 178.25 27.925C177.93 27.715 177.52 27.61 177.02 27.61C176.57 27.61 176.195 27.705 175.895 27.895C175.605 28.075 175.46 28.285 175.46 28.525C175.46 28.795 175.59 29.01 175.85 29.17C176.12 29.33 176.605 29.475 177.305 29.605C178.365 29.795 179.115 30.065 179.555 30.415C179.995 30.765 180.215 31.255 180.215 31.885C180.215 32.555 179.925 33.1 179.345 33.52C178.765 33.94 177.965 34.15 176.945 34.15ZM187.03 33.505C186.79 33.705 186.495 33.865 186.145 33.985C185.805 34.095 185.435 34.15 185.035 34.15C184.345 34.15 183.79 33.98 183.37 33.64C182.96 33.29 182.75 32.75 182.74 32.02V27.76H181.315V26.5H182.74V24.745L184.345 24.295V26.5H186.97V27.76H184.345V31.75C184.345 32.11 184.44 32.38 184.63 32.56C184.83 32.73 185.1 32.815 185.44 32.815C185.9 32.815 186.305 32.655 186.655 32.335L187.03 33.505ZM191.827 26.35C192.997 26.35 193.912 26.695 194.572 27.385C195.232 28.075 195.562 29.03 195.562 30.25C195.562 31.47 195.232 32.425 194.572 33.115C193.912 33.805 192.997 34.15 191.827 34.15C190.657 34.15 189.742 33.805 189.082 33.115C188.422 32.425 188.092 31.47 188.092 30.25C188.092 29.03 188.422 28.075 189.082 27.385C189.742 26.695 190.657 26.35 191.827 26.35ZM191.827 27.61C191.147 27.61 190.622 27.84 190.252 28.3C189.892 28.75 189.712 29.4 189.712 30.25C189.712 31.1 189.892 31.755 190.252 32.215C190.622 32.665 191.147 32.89 191.827 32.89C192.507 32.89 193.032 32.66 193.402 32.2C193.772 31.74 193.957 31.09 193.957 30.25C193.957 29.41 193.772 28.76 193.402 28.3C193.032 27.84 192.507 27.61 191.827 27.61ZM201.494 26.35C201.844 26.35 202.119 26.4 202.319 26.5L202.064 27.97C201.834 27.84 201.519 27.775 201.119 27.775C200.799 27.775 200.494 27.86 200.204 28.03C199.924 28.2 199.689 28.455 199.499 28.795C199.319 29.135 199.229 29.545 199.229 30.025V34H197.624V26.5H198.989L199.124 27.85C199.544 26.85 200.334 26.35 201.494 26.35ZM210.349 30.025C210.349 30.315 210.329 30.59 210.289 30.85H204.799C204.889 31.51 205.124 32.015 205.504 32.365C205.884 32.705 206.374 32.875 206.974 32.875C207.464 32.875 207.869 32.79 208.189 32.62C208.519 32.44 208.744 32.185 208.864 31.855L210.199 32.41C209.639 33.57 208.564 34.15 206.974 34.15C205.794 34.15 204.869 33.805 204.199 33.115C203.539 32.425 203.209 31.47 203.209 30.25C203.209 29.02 203.529 28.065 204.169 27.385C204.809 26.695 205.709 26.35 206.869 26.35C207.969 26.35 208.824 26.685 209.434 27.355C210.044 28.025 210.349 28.915 210.349 30.025ZM206.869 27.625C206.289 27.625 205.819 27.795 205.459 28.135C205.109 28.475 204.889 28.97 204.799 29.62H208.849C208.769 28.99 208.554 28.5 208.204 28.15C207.864 27.8 207.419 27.625 206.869 27.625ZM212.873 35.05H211.373L215.843 23.125H217.343L212.873 35.05ZM224.121 30.49C224.121 31.64 223.801 32.54 223.161 33.19C222.531 33.83 221.651 34.15 220.521 34.15C219.481 34.15 218.686 33.905 218.136 33.415C217.586 32.915 217.311 32.235 217.311 31.375C217.311 31.065 217.336 30.785 217.386 30.535L218.916 30.25C218.876 30.63 218.856 30.885 218.856 31.015C218.856 31.615 218.991 32.055 219.261 32.335C219.531 32.615 219.951 32.755 220.521 32.755C221.251 32.755 221.766 32.55 222.066 32.14C222.366 31.72 222.516 31.07 222.516 30.19V24.1H224.121V30.49ZM230.301 23.95C231.211 23.95 231.986 24.115 232.626 24.445C233.276 24.775 233.821 25.28 234.261 25.96L233.046 27.055C232.766 26.455 232.416 26.02 231.996 25.75C231.576 25.48 231.016 25.345 230.316 25.345C229.626 25.345 229.091 25.485 228.711 25.765C228.331 26.035 228.141 26.385 228.141 26.815C228.141 27.215 228.326 27.535 228.696 27.775C229.066 28.005 229.726 28.205 230.676 28.375C231.566 28.535 232.271 28.74 232.791 28.99C233.321 29.23 233.706 29.535 233.946 29.905C234.186 30.265 234.306 30.715 234.306 31.255C234.306 31.835 234.141 32.345 233.811 32.785C233.481 33.225 233.016 33.565 232.416 33.805C231.826 34.035 231.141 34.15 230.361 34.15C228.351 34.15 226.931 33.48 226.101 32.14L227.226 31.015C227.546 31.615 227.956 32.055 228.456 32.335C228.966 32.615 229.596 32.755 230.346 32.755C231.056 32.755 231.611 32.635 232.011 32.395C232.421 32.145 232.626 31.795 232.626 31.345C232.626 30.985 232.441 30.695 232.071 30.475C231.711 30.255 231.076 30.06 230.166 29.89C229.256 29.72 228.531 29.51 227.991 29.26C227.451 29.01 227.056 28.7 226.806 28.33C226.566 27.96 226.446 27.51 226.446 26.98C226.446 26.42 226.601 25.91 226.911 25.45C227.221 24.99 227.666 24.625 228.246 24.355C228.836 24.085 229.521 23.95 230.301 23.95ZM240.66 23.95C241.61 23.95 242.435 24.155 243.135 24.565C243.845 24.975 244.39 25.565 244.77 26.335C245.15 27.105 245.34 28.01 245.34 29.05C245.34 30.09 245.15 30.995 244.77 31.765C244.39 32.535 243.845 33.125 243.135 33.535C242.435 33.945 241.61 34.15 240.66 34.15C239.71 34.15 238.885 33.945 238.185 33.535C237.485 33.125 236.945 32.535 236.565 31.765C236.185 30.995 235.995 30.09 235.995 29.05C235.995 28.01 236.185 27.105 236.565 26.335C236.945 25.565 237.485 24.975 238.185 24.565C238.885 24.155 239.71 23.95 240.66 23.95ZM240.66 25.345C239.73 25.345 239 25.67 238.47 26.32C237.94 26.97 237.675 27.88 237.675 29.05C237.675 30.22 237.94 31.13 238.47 31.78C239 32.43 239.73 32.755 240.66 32.755C241.6 32.755 242.335 32.43 242.865 31.78C243.395 31.13 243.66 30.22 243.66 29.05C243.66 27.88 243.395 26.97 242.865 26.32C242.335 25.67 241.6 25.345 240.66 25.345ZM255.842 34H253.937L250.112 27.76L249.152 25.93H249.137L249.197 27.61V34H247.727V24.1H249.617L253.427 30.325L254.402 32.17H254.417L254.357 30.49V24.1H255.842V34ZM265.255 25.48V28.345H269.605V29.74H265.255V34H263.65V24.1H270.805V25.48H265.255ZM273.405 25.24C273.065 25.24 272.8 25.155 272.61 24.985C272.42 24.805 272.325 24.555 272.325 24.235C272.325 23.915 272.42 23.67 272.61 23.5C272.8 23.33 273.065 23.245 273.405 23.245C273.745 23.245 274.005 23.33 274.185 23.5C274.375 23.67 274.47 23.915 274.47 24.235C274.47 24.555 274.375 24.805 274.185 24.985C274.005 25.155 273.745 25.24 273.405 25.24ZM274.2 34H272.595V26.5H274.2V34ZM278.271 31.81C278.271 32.18 278.326 32.44 278.436 32.59C278.546 32.73 278.751 32.8 279.051 32.8C279.241 32.8 279.401 32.79 279.531 32.77C279.671 32.74 279.841 32.685 280.041 32.605L279.861 33.895C279.521 34.065 279.106 34.15 278.616 34.15C277.946 34.15 277.451 33.98 277.131 33.64C276.821 33.3 276.666 32.765 276.666 32.035V23.125H278.271V31.81ZM288.089 30.025C288.089 30.315 288.069 30.59 288.029 30.85H282.539C282.629 31.51 282.864 32.015 283.244 32.365C283.624 32.705 284.114 32.875 284.714 32.875C285.204 32.875 285.609 32.79 285.929 32.62C286.259 32.44 286.484 32.185 286.604 31.855L287.939 32.41C287.379 33.57 286.304 34.15 284.714 34.15C283.534 34.15 282.609 33.805 281.939 33.115C281.279 32.425 280.949 31.47 280.949 30.25C280.949 29.02 281.269 28.065 281.909 27.385C282.549 26.695 283.449 26.35 284.609 26.35C285.709 26.35 286.564 26.685 287.174 27.355C287.784 28.025 288.089 28.915 288.089 30.025ZM284.609 27.625C284.029 27.625 283.559 27.795 283.199 28.135C282.849 28.475 282.629 28.97 282.539 29.62H286.589C286.509 28.99 286.294 28.5 285.944 28.15C285.604 27.8 285.159 27.625 284.609 27.625Z" fill="white"/>
<rect width="22.5" height="30" fill="black" fill-opacity="0" transform="translate(23.5 14.5)"/>
<path fill-rule="evenodd" clip-rule="evenodd" d="M46 44.5H23.5V14.5H41.5L46 19V44.5Z" stroke="white"/>
<path d="M46 19H41.5V14.5" stroke="white"/>
<path d="M31 37H32.5" stroke="white"/>
<path d="M34 37H35.5" stroke="white"/>
<path d="M37 37H38.5" stroke="white"/>
<path d="M43 21.25V41.5H26.5V17.5H39.25" stroke="white"/>
<path d="M35.2495 26.25L40.4675 30.847V32.968H37.9315L37.2245 32.261V30.847H35.8105L35.1035 30.139" stroke="white"/>
<path d="M32.5078 22.5928L31.0928 24.0078" stroke="white"/>
<path fill-rule="evenodd" clip-rule="evenodd" d="M34.9823 26.4823C33.6153 27.8483 31.3993 27.8483 30.0323 26.4823C28.6663 25.1153 28.6663 22.8993 30.0323 21.5323C31.3993 20.1663 33.6153 20.1663 34.9823 21.5323C36.3483 22.8993 36.3483 25.1153 34.9823 26.4823Z" stroke="white"/>
</svg>
