<svg width="335" height="60" viewBox="0 0 335 60" fill="none" xmlns="http://www.w3.org/2000/svg">
<rect width="335" height="60" fill="black" fill-opacity="0"/>
<path opacity="0.2" fill-rule="evenodd" clip-rule="evenodd" d="M0 0H335V60H0V0Z" fill="black"/>
<path d="M71.075 35H69.47V25.1H71.075V35ZM82.7724 27.35C83.2724 27.35 83.7324 27.455 84.1524 27.665C84.5724 27.865 84.9074 28.175 85.1574 28.595C85.4074 29.015 85.5324 29.53 85.5324 30.14V35H83.9274V30.395C83.9274 29.805 83.7874 29.37 83.5074 29.09C83.2274 28.81 82.8524 28.67 82.3824 28.67C81.8324 28.67 81.3674 28.87 80.9874 29.27C80.6174 29.67 80.4324 30.22 80.4324 30.92V35H78.8274V30.395C78.8274 29.805 78.6874 29.37 78.4074 29.09C78.1274 28.81 77.7524 28.67 77.2824 28.67C76.9624 28.67 76.6524 28.755 76.3524 28.925C76.0524 29.085 75.8074 29.34 75.6174 29.69C75.4274 30.04 75.3324 30.48 75.3324 31.01V35H73.7274V27.5H75.1524L75.2274 28.745C75.4774 28.285 75.8174 27.94 76.2474 27.71C76.6774 27.47 77.1474 27.35 77.6574 27.35C78.2174 27.35 78.7224 27.48 79.1724 27.74C79.6324 27.99 79.9724 28.36 80.1924 28.85C80.4224 28.36 80.7724 27.99 81.2424 27.74C81.7224 27.48 82.2324 27.35 82.7724 27.35ZM92.0007 27.35C93.0307 27.35 93.8407 27.695 94.4307 28.385C95.0207 29.065 95.3157 30.015 95.3157 31.235C95.3157 32.455 95.0207 33.415 94.4307 34.115C93.8407 34.805 93.0307 35.15 92.0007 35.15C91.4607 35.15 90.9757 35.03 90.5457 34.79C90.1257 34.55 89.8007 34.22 89.5707 33.8V38.15H87.9657V27.5H89.3757L89.4507 28.895C89.6707 28.425 90.0007 28.05 90.4407 27.77C90.8907 27.49 91.4107 27.35 92.0007 27.35ZM91.6407 33.845C92.2907 33.845 92.7957 33.62 93.1557 33.17C93.5257 32.71 93.7107 32.07 93.7107 31.25C93.7107 30.43 93.5257 29.79 93.1557 29.33C92.7957 28.87 92.2907 28.64 91.6407 28.64C91.0307 28.64 90.5407 28.845 90.1707 29.255C89.8107 29.665 89.6107 30.235 89.5707 30.965V31.535C89.6107 32.255 89.8107 32.82 90.1707 33.23C90.5407 33.64 91.0307 33.845 91.6407 33.845ZM100.699 27.35C101.869 27.35 102.784 27.695 103.444 28.385C104.104 29.075 104.434 30.03 104.434 31.25C104.434 32.47 104.104 33.425 103.444 34.115C102.784 34.805 101.869 35.15 100.699 35.15C99.5293 35.15 98.6143 34.805 97.9543 34.115C97.2943 33.425 96.9643 32.47 96.9643 31.25C96.9643 30.03 97.2943 29.075 97.9543 28.385C98.6143 27.695 99.5293 27.35 100.699 27.35ZM100.699 28.61C100.019 28.61 99.4943 28.84 99.1243 29.3C98.7643 29.75 98.5843 30.4 98.5843 31.25C98.5843 32.1 98.7643 32.755 99.1243 33.215C99.4943 33.665 100.019 33.89 100.699 33.89C101.379 33.89 101.904 33.66 102.274 33.2C102.644 32.74 102.829 32.09 102.829 31.25C102.829 30.41 102.644 29.76 102.274 29.3C101.904 28.84 101.379 28.61 100.699 28.61ZM110.366 27.35C110.716 27.35 110.991 27.4 111.191 27.5L110.936 28.97C110.706 28.84 110.391 28.775 109.991 28.775C109.671 28.775 109.366 28.86 109.076 29.03C108.796 29.2 108.561 29.455 108.371 29.795C108.191 30.135 108.101 30.545 108.101 31.025V35H106.496V27.5H107.861L107.996 28.85C108.416 27.85 109.206 27.35 110.366 27.35ZM117.186 34.505C116.946 34.705 116.651 34.865 116.301 34.985C115.961 35.095 115.591 35.15 115.191 35.15C114.501 35.15 113.946 34.98 113.526 34.64C113.116 34.29 112.906 33.75 112.896 33.02V28.76H111.471V27.5H112.896V25.745L114.501 25.295V27.5H117.126V28.76H114.501V32.75C114.501 33.11 114.596 33.38 114.786 33.56C114.986 33.73 115.256 33.815 115.596 33.815C116.056 33.815 116.461 33.655 116.811 33.335L117.186 34.505ZM129.81 27.5L126.825 35H125.07L122.07 27.5H123.84L125.955 33.695L128.13 27.5H129.81ZM131.989 26.24C131.649 26.24 131.384 26.155 131.194 25.985C131.004 25.805 130.909 25.555 130.909 25.235C130.909 24.915 131.004 24.67 131.194 24.5C131.384 24.33 131.649 24.245 131.989 24.245C132.329 24.245 132.589 24.33 132.769 24.5C132.959 24.67 133.054 24.915 133.054 25.235C133.054 25.555 132.959 25.805 132.769 25.985C132.589 26.155 132.329 26.24 131.989 26.24ZM132.784 35H131.179V27.5H132.784V35ZM141.775 33.95C141.995 33.95 142.18 33.93 142.33 33.89L142.225 34.97C141.955 35.09 141.645 35.15 141.295 35.15C140.865 35.15 140.52 35.065 140.26 34.895C140.01 34.725 139.845 34.44 139.765 34.04C139.535 34.39 139.195 34.665 138.745 34.865C138.295 35.055 137.79 35.15 137.23 35.15C136.5 35.15 135.91 34.98 135.46 34.64C135.01 34.3 134.785 33.815 134.785 33.185C134.785 32.595 135.03 32.1 135.52 31.7C136.01 31.29 136.74 31 137.71 30.83L139.615 30.5V30.095C139.615 29.635 139.48 29.275 139.21 29.015C138.94 28.745 138.565 28.61 138.085 28.61C137.095 28.61 136.45 29.06 136.15 29.96L134.905 29.3C135.085 28.7 135.45 28.225 136 27.875C136.56 27.525 137.245 27.35 138.055 27.35C139.025 27.35 139.795 27.575 140.365 28.025C140.935 28.475 141.22 29.135 141.22 30.005V33.395C141.22 33.585 141.26 33.725 141.34 33.815C141.43 33.905 141.575 33.95 141.775 33.95ZM137.575 33.935C138.115 33.935 138.59 33.805 139 33.545C139.41 33.285 139.615 32.94 139.615 32.51V31.61L137.98 31.94C137.46 32.04 137.075 32.18 136.825 32.36C136.575 32.54 136.45 32.78 136.45 33.08C136.45 33.36 136.545 33.575 136.735 33.725C136.935 33.865 137.215 33.935 137.575 33.935ZM158.799 35H157.329V29.27L157.434 26.54H157.419L154.404 35H153.069L150.054 26.54H150.039L150.159 29.27V35H148.674V25.1H151.059L153.054 30.83L153.744 33.185H153.774L154.479 30.83L156.459 25.1H158.799V35ZM165.492 27.35C166.322 27.35 166.997 27.59 167.517 28.07C168.047 28.55 168.312 29.24 168.312 30.14V35H166.707V30.65C166.707 29.33 166.172 28.67 165.102 28.67C164.542 28.67 164.062 28.865 163.662 29.255C163.262 29.635 163.062 30.225 163.062 31.025V35H161.457V27.5H162.882L162.957 28.745C163.207 28.275 163.552 27.925 163.992 27.695C164.432 27.465 164.932 27.35 165.492 27.35ZM177.449 31.025C177.449 31.315 177.429 31.59 177.389 31.85H171.899C171.989 32.51 172.224 33.015 172.604 33.365C172.984 33.705 173.474 33.875 174.074 33.875C174.564 33.875 174.969 33.79 175.289 33.62C175.619 33.44 175.844 33.185 175.964 32.855L177.299 33.41C176.739 34.57 175.664 35.15 174.074 35.15C172.894 35.15 171.969 34.805 171.299 34.115C170.639 33.425 170.309 32.47 170.309 31.25C170.309 30.02 170.629 29.065 171.269 28.385C171.909 27.695 172.809 27.35 173.969 27.35C175.069 27.35 175.924 27.685 176.534 28.355C177.144 29.025 177.449 29.915 177.449 31.025ZM173.969 28.625C173.389 28.625 172.919 28.795 172.559 29.135C172.209 29.475 171.989 29.97 171.899 30.62H175.949C175.869 29.99 175.654 29.5 175.304 29.15C174.964 28.8 174.519 28.625 173.969 28.625ZM188.505 27.35C189.005 27.35 189.465 27.455 189.885 27.665C190.305 27.865 190.64 28.175 190.89 28.595C191.14 29.015 191.265 29.53 191.265 30.14V35H189.66V30.395C189.66 29.805 189.52 29.37 189.24 29.09C188.96 28.81 188.585 28.67 188.115 28.67C187.565 28.67 187.1 28.87 186.72 29.27C186.35 29.67 186.165 30.22 186.165 30.92V35H184.56V30.395C184.56 29.805 184.42 29.37 184.14 29.09C183.86 28.81 183.485 28.67 183.015 28.67C182.695 28.67 182.385 28.755 182.085 28.925C181.785 29.085 181.54 29.34 181.35 29.69C181.16 30.04 181.065 30.48 181.065 31.01V35H179.46V27.5H180.885L180.96 28.745C181.21 28.285 181.55 27.94 181.98 27.71C182.41 27.47 182.88 27.35 183.39 27.35C183.95 27.35 184.455 27.48 184.905 27.74C185.365 27.99 185.705 28.36 185.925 28.85C186.155 28.36 186.505 27.99 186.975 27.74C187.455 27.48 187.965 27.35 188.505 27.35ZM196.998 27.35C198.168 27.35 199.083 27.695 199.743 28.385C200.403 29.075 200.733 30.03 200.733 31.25C200.733 32.47 200.403 33.425 199.743 34.115C199.083 34.805 198.168 35.15 196.998 35.15C195.828 35.15 194.913 34.805 194.253 34.115C193.593 33.425 193.263 32.47 193.263 31.25C193.263 30.03 193.593 29.075 194.253 28.385C194.913 27.695 195.828 27.35 196.998 27.35ZM196.998 28.61C196.318 28.61 195.793 28.84 195.423 29.3C195.063 29.75 194.883 30.4 194.883 31.25C194.883 32.1 195.063 32.755 195.423 33.215C195.793 33.665 196.318 33.89 196.998 33.89C197.678 33.89 198.203 33.66 198.573 33.2C198.943 32.74 199.128 32.09 199.128 31.25C199.128 30.41 198.943 29.76 198.573 29.3C198.203 28.84 197.678 28.61 196.998 28.61ZM206.83 27.35C207.66 27.35 208.335 27.59 208.855 28.07C209.385 28.55 209.65 29.24 209.65 30.14V35H208.045V30.65C208.045 29.33 207.51 28.67 206.44 28.67C205.88 28.67 205.4 28.865 205 29.255C204.6 29.635 204.4 30.225 204.4 31.025V35H202.795V27.5H204.22L204.295 28.745C204.545 28.275 204.89 27.925 205.33 27.695C205.77 27.465 206.27 27.35 206.83 27.35ZM212.892 26.24C212.552 26.24 212.287 26.155 212.097 25.985C211.907 25.805 211.812 25.555 211.812 25.235C211.812 24.915 211.907 24.67 212.097 24.5C212.287 24.33 212.552 24.245 212.892 24.245C213.232 24.245 213.492 24.33 213.672 24.5C213.862 24.67 213.957 24.915 213.957 25.235C213.957 25.555 213.862 25.805 213.672 25.985C213.492 26.155 213.232 26.24 212.892 26.24ZM213.687 35H212.082V27.5H213.687V35ZM219.498 27.35C221.138 27.35 222.223 28.05 222.753 29.45L221.253 30.05C220.993 29.1 220.408 28.625 219.498 28.625C218.828 28.625 218.308 28.855 217.938 29.315C217.568 29.775 217.383 30.425 217.383 31.265C217.383 32.105 217.568 32.75 217.938 33.2C218.308 33.65 218.828 33.875 219.498 33.875C220.008 33.875 220.418 33.75 220.728 33.5C221.038 33.25 221.243 32.89 221.343 32.42L222.813 32.915C222.593 33.615 222.203 34.165 221.643 34.565C221.083 34.955 220.378 35.15 219.528 35.15C218.348 35.15 217.423 34.805 216.753 34.115C216.093 33.425 215.763 32.47 215.763 31.25C215.763 30.03 216.093 29.075 216.753 28.385C217.413 27.695 218.328 27.35 219.498 27.35ZM233.607 25.1C234.677 25.1 235.522 25.375 236.142 25.925C236.772 26.475 237.087 27.23 237.087 28.19C237.087 29.15 236.772 29.905 236.142 30.455C235.522 30.995 234.677 31.265 233.607 31.265H231.402V35H229.797V25.1H233.607ZM233.352 29.9C234.052 29.9 234.572 29.76 234.912 29.48C235.252 29.19 235.422 28.76 235.422 28.19C235.422 27.04 234.732 26.465 233.352 26.465H231.402V29.9H233.352ZM243.011 27.35C243.841 27.35 244.516 27.59 245.036 28.07C245.566 28.55 245.831 29.24 245.831 30.14V35H244.226V30.65C244.226 29.33 243.691 28.67 242.621 28.67C242.061 28.67 241.581 28.865 241.181 29.255C240.781 29.645 240.581 30.24 240.581 31.04V35H238.976V24.125H240.581V28.7C240.831 28.24 241.161 27.9 241.571 27.68C241.991 27.46 242.471 27.35 243.011 27.35ZM252.134 27.35C252.484 27.35 252.759 27.4 252.959 27.5L252.704 28.97C252.474 28.84 252.159 28.775 251.759 28.775C251.439 28.775 251.134 28.86 250.844 29.03C250.564 29.2 250.329 29.455 250.139 29.795C249.959 30.135 249.869 30.545 249.869 31.025V35H248.264V27.5H249.629L249.764 28.85C250.184 27.85 250.974 27.35 252.134 27.35ZM260.793 33.95C261.013 33.95 261.198 33.93 261.348 33.89L261.243 34.97C260.973 35.09 260.663 35.15 260.313 35.15C259.883 35.15 259.538 35.065 259.278 34.895C259.028 34.725 258.863 34.44 258.783 34.04C258.553 34.39 258.213 34.665 257.763 34.865C257.313 35.055 256.808 35.15 256.248 35.15C255.518 35.15 254.928 34.98 254.478 34.64C254.028 34.3 253.803 33.815 253.803 33.185C253.803 32.595 254.048 32.1 254.538 31.7C255.028 31.29 255.758 31 256.728 30.83L258.633 30.5V30.095C258.633 29.635 258.498 29.275 258.228 29.015C257.958 28.745 257.583 28.61 257.103 28.61C256.113 28.61 255.468 29.06 255.168 29.96L253.923 29.3C254.103 28.7 254.468 28.225 255.018 27.875C255.578 27.525 256.263 27.35 257.073 27.35C258.043 27.35 258.813 27.575 259.383 28.025C259.953 28.475 260.238 29.135 260.238 30.005V33.395C260.238 33.585 260.278 33.725 260.358 33.815C260.448 33.905 260.593 33.95 260.793 33.95ZM256.593 33.935C257.133 33.935 257.608 33.805 258.018 33.545C258.428 33.285 258.633 32.94 258.633 32.51V31.61L256.998 31.94C256.478 32.04 256.093 32.18 255.843 32.36C255.593 32.54 255.468 32.78 255.468 33.08C255.468 33.36 255.563 33.575 255.753 33.725C255.953 33.865 256.233 33.935 256.593 33.935ZM265.583 35.15C264.823 35.15 264.148 35.02 263.558 34.76C262.978 34.5 262.538 34.105 262.238 33.575L263.318 32.645C263.508 33.075 263.803 33.39 264.203 33.59C264.603 33.79 265.083 33.89 265.643 33.89C266.153 33.89 266.548 33.81 266.828 33.65C267.108 33.48 267.248 33.26 267.248 32.99C267.248 32.75 267.118 32.56 266.858 32.42C266.598 32.27 266.148 32.13 265.508 32C264.398 31.79 263.618 31.51 263.168 31.16C262.718 30.81 262.493 30.315 262.493 29.675C262.493 29.265 262.618 28.885 262.868 28.535C263.118 28.175 263.478 27.89 263.948 27.68C264.428 27.46 264.993 27.35 265.643 27.35C266.473 27.35 267.138 27.49 267.638 27.77C268.138 28.04 268.523 28.465 268.793 29.045L267.653 29.885C267.473 29.445 267.218 29.125 266.888 28.925C266.568 28.715 266.158 28.61 265.658 28.61C265.208 28.61 264.833 28.705 264.533 28.895C264.243 29.075 264.098 29.285 264.098 29.525C264.098 29.795 264.228 30.01 264.488 30.17C264.758 30.33 265.243 30.475 265.943 30.605C267.003 30.795 267.753 31.065 268.193 31.415C268.633 31.765 268.853 32.255 268.853 32.885C268.853 33.555 268.563 34.1 267.983 34.52C267.403 34.94 266.603 35.15 265.583 35.15ZM277.498 31.025C277.498 31.315 277.478 31.59 277.438 31.85H271.948C272.038 32.51 272.273 33.015 272.653 33.365C273.033 33.705 273.523 33.875 274.123 33.875C274.613 33.875 275.018 33.79 275.338 33.62C275.668 33.44 275.893 33.185 276.013 32.855L277.348 33.41C276.788 34.57 275.713 35.15 274.123 35.15C272.943 35.15 272.018 34.805 271.348 34.115C270.688 33.425 270.358 32.47 270.358 31.25C270.358 30.02 270.678 29.065 271.318 28.385C271.958 27.695 272.858 27.35 274.018 27.35C275.118 27.35 275.973 27.685 276.583 28.355C277.193 29.025 277.498 29.915 277.498 31.025ZM274.018 28.625C273.438 28.625 272.968 28.795 272.608 29.135C272.258 29.475 272.038 29.97 271.948 30.62H275.998C275.918 29.99 275.703 29.5 275.353 29.15C275.013 28.8 274.568 28.625 274.018 28.625Z" fill="white"/>
<rect width="31" height="29" fill="black" fill-opacity="0" transform="translate(20 14)"/>
<path fill-rule="evenodd" clip-rule="evenodd" d="M33 19H51V22H33V19Z" stroke="white"/>
<path fill-rule="evenodd" clip-rule="evenodd" d="M50 26H48V25H46V22H50V26Z" stroke="white"/>
<path fill-rule="evenodd" clip-rule="evenodd" d="M25 20.5C25 21.328 24.328 22 23.5 22C22.672 22 22 21.328 22 20.5C22 19.672 22.672 19 23.5 19C24.328 19 25 19.672 25 20.5Z" stroke="white"/>
<path fill-rule="evenodd" clip-rule="evenodd" d="M28 31H36V29H28V31Z" stroke="white"/>
<path fill-rule="evenodd" clip-rule="evenodd" d="M38 31H51V29H38V31Z" stroke="white"/>
<path fill-rule="evenodd" clip-rule="evenodd" d="M20 35H28V33H20V35Z" stroke="white"/>
<path fill-rule="evenodd" clip-rule="evenodd" d="M30 35H41V33H30V35Z" stroke="white"/>
<path fill-rule="evenodd" clip-rule="evenodd" d="M43 35H51V33H43V35Z" stroke="white"/>
<path fill-rule="evenodd" clip-rule="evenodd" d="M20 39H31V37H20V39Z" stroke="white"/>
<path fill-rule="evenodd" clip-rule="evenodd" d="M33 39H43V37H33V39Z" stroke="white"/>
<path fill-rule="evenodd" clip-rule="evenodd" d="M45 39H51V37H45V39Z" stroke="white"/>
<path fill-rule="evenodd" clip-rule="evenodd" d="M20 43H29V41H20V43Z" stroke="white"/>
<path fill-rule="evenodd" clip-rule="evenodd" d="M31 43H40V41H31V43Z" stroke="white"/>
<path fill-rule="evenodd" clip-rule="evenodd" d="M20 31H26V29H20V31Z" stroke="white"/>
<path fill-rule="evenodd" clip-rule="evenodd" d="M33 20.5C33 24.09 30.09 27 26.5 27C22.91 27 20 24.09 20 20.5C20 16.91 22.91 14 26.5 14C30.09 14 33 16.91 33 20.5Z" stroke="white"/>
<path d="M41.5 25H40.5" stroke="white"/>
<path d="M43.5 25H42.5" stroke="white"/>
<path d="M39.5 25H38.5" stroke="white"/>
<path d="M37.5 25H36.5" stroke="white"/>
</svg>
