<svg width="335" height="60" viewBox="0 0 335 60" fill="none" xmlns="http://www.w3.org/2000/svg">
<rect width="335" height="60" fill="black" fill-opacity="0"/>
<path opacity="0.2" fill-rule="evenodd" clip-rule="evenodd" d="M0 0H335V60H0V0Z" fill="black"/>
<path d="M73.88 37H72.005L68.33 27.1H70.04L72.35 33.685L72.95 35.65L73.55 33.7L75.86 27.1H77.555L73.88 37ZM79.9427 28.24C79.6027 28.24 79.3377 28.155 79.1477 27.985C78.9577 27.805 78.8627 27.555 78.8627 27.235C78.8627 26.915 78.9577 26.67 79.1477 26.5C79.3377 26.33 79.6027 26.245 79.9427 26.245C80.2827 26.245 80.5427 26.33 80.7227 26.5C80.9127 26.67 81.0077 26.915 81.0077 27.235C81.0077 27.555 80.9127 27.805 80.7227 27.985C80.5427 28.155 80.2827 28.24 79.9427 28.24ZM80.7377 37H79.1327V29.5H80.7377V37ZM89.9539 33.025C89.9539 33.315 89.9339 33.59 89.8939 33.85H84.4039C84.4939 34.51 84.7289 35.015 85.1089 35.365C85.4889 35.705 85.9789 35.875 86.5789 35.875C87.0689 35.875 87.4739 35.79 87.7939 35.62C88.1239 35.44 88.3489 35.185 88.4689 34.855L89.8039 35.41C89.2439 36.57 88.1689 37.15 86.5789 37.15C85.3989 37.15 84.4739 36.805 83.8039 36.115C83.1439 35.425 82.8139 34.47 82.8139 33.25C82.8139 32.02 83.1339 31.065 83.7739 30.385C84.4139 29.695 85.3139 29.35 86.4739 29.35C87.5739 29.35 88.4289 29.685 89.0389 30.355C89.6489 31.025 89.9539 31.915 89.9539 33.025ZM86.4739 30.625C85.8939 30.625 85.4239 30.795 85.0639 31.135C84.7139 31.475 84.4939 31.97 84.4039 32.62H88.4539C88.3739 31.99 88.1589 31.5 87.8089 31.15C87.4689 30.8 87.0239 30.625 86.4739 30.625ZM103.174 29.5L100.669 37H98.9143L97.0243 31.33L95.2243 37H93.4693L90.9643 29.5H92.7043L94.3993 35.5L96.2743 29.5H97.8643L99.7243 35.5L101.434 29.5H103.174ZM120.445 29.5L117.94 37H116.185L114.295 31.33L112.495 37H110.74L108.235 29.5H109.975L111.67 35.5L113.545 29.5H115.135L116.995 35.5L118.705 29.5H120.445ZM122.921 28.24C122.581 28.24 122.316 28.155 122.126 27.985C121.936 27.805 121.841 27.555 121.841 27.235C121.841 26.915 121.936 26.67 122.126 26.5C122.316 26.33 122.581 26.245 122.921 26.245C123.261 26.245 123.521 26.33 123.701 26.5C123.891 26.67 123.986 26.915 123.986 27.235C123.986 27.555 123.891 27.805 123.701 27.985C123.521 28.155 123.261 28.24 122.921 28.24ZM123.716 37H122.111V29.5H123.716V37ZM131.087 36.505C130.847 36.705 130.552 36.865 130.202 36.985C129.862 37.095 129.492 37.15 129.092 37.15C128.402 37.15 127.847 36.98 127.427 36.64C127.017 36.29 126.807 35.75 126.797 35.02V30.76H125.372V29.5H126.797V27.745L128.402 27.295V29.5H131.027V30.76H128.402V34.75C128.402 35.11 128.497 35.38 128.687 35.56C128.887 35.73 129.157 35.815 129.497 35.815C129.957 35.815 130.362 35.655 130.712 35.335L131.087 36.505ZM136.678 29.35C137.508 29.35 138.183 29.59 138.703 30.07C139.233 30.55 139.498 31.24 139.498 32.14V37H137.893V32.65C137.893 31.33 137.358 30.67 136.288 30.67C135.728 30.67 135.248 30.865 134.848 31.255C134.448 31.645 134.248 32.24 134.248 33.04V37H132.643V26.125H134.248V30.7C134.498 30.24 134.828 29.9 135.238 29.68C135.658 29.46 136.138 29.35 136.678 29.35ZM152.101 34.405H147.931L146.986 37H145.336L149.071 27.1H150.991L154.726 37H153.031L152.101 34.405ZM151.621 33.1L150.481 29.92L150.031 28.495H149.986L149.566 29.89L148.396 33.1H151.621ZM163.055 26.125V37H161.645L161.555 35.665C161.335 36.115 161 36.475 160.55 36.745C160.11 37.015 159.605 37.15 159.035 37.15C158.005 37.15 157.19 36.81 156.59 36.13C156 35.44 155.705 34.485 155.705 33.265C155.705 32.045 156 31.09 156.59 30.4C157.19 29.7 158.005 29.35 159.035 29.35C159.585 29.35 160.07 29.475 160.49 29.725C160.91 29.965 161.23 30.295 161.45 30.715V26.125H163.055ZM159.395 35.86C160.025 35.86 160.525 35.635 160.895 35.185C161.265 34.735 161.45 34.12 161.45 33.34V33.16C161.45 32.38 161.265 31.77 160.895 31.33C160.525 30.88 160.025 30.655 159.395 30.655C158.745 30.655 158.235 30.885 157.865 31.345C157.505 31.795 157.325 32.43 157.325 33.25C157.325 34.07 157.505 34.71 157.865 35.17C158.235 35.63 158.745 35.86 159.395 35.86ZM172.489 26.125V37H171.079L170.989 35.665C170.769 36.115 170.434 36.475 169.984 36.745C169.544 37.015 169.039 37.15 168.469 37.15C167.439 37.15 166.624 36.81 166.024 36.13C165.434 35.44 165.139 34.485 165.139 33.265C165.139 32.045 165.434 31.09 166.024 30.4C166.624 29.7 167.439 29.35 168.469 29.35C169.019 29.35 169.504 29.475 169.924 29.725C170.344 29.965 170.664 30.295 170.884 30.715V26.125H172.489ZM168.829 35.86C169.459 35.86 169.959 35.635 170.329 35.185C170.699 34.735 170.884 34.12 170.884 33.34V33.16C170.884 32.38 170.699 31.77 170.329 31.33C169.959 30.88 169.459 30.655 168.829 30.655C168.179 30.655 167.669 30.885 167.299 31.345C166.939 31.795 166.759 32.43 166.759 33.25C166.759 34.07 166.939 34.71 167.299 35.17C167.669 35.63 168.179 35.86 168.829 35.86ZM178.847 29.35C179.197 29.35 179.472 29.4 179.672 29.5L179.417 30.97C179.187 30.84 178.872 30.775 178.472 30.775C178.152 30.775 177.847 30.86 177.557 31.03C177.277 31.2 177.042 31.455 176.852 31.795C176.672 32.135 176.582 32.545 176.582 33.025V37H174.977V29.5H176.342L176.477 30.85C176.897 29.85 177.687 29.35 178.847 29.35ZM187.703 33.025C187.703 33.315 187.683 33.59 187.643 33.85H182.153C182.243 34.51 182.478 35.015 182.858 35.365C183.238 35.705 183.728 35.875 184.328 35.875C184.818 35.875 185.223 35.79 185.543 35.62C185.873 35.44 186.098 35.185 186.218 34.855L187.553 35.41C186.993 36.57 185.918 37.15 184.328 37.15C183.148 37.15 182.223 36.805 181.553 36.115C180.893 35.425 180.563 34.47 180.563 33.25C180.563 32.02 180.883 31.065 181.523 30.385C182.163 29.695 183.063 29.35 184.223 29.35C185.323 29.35 186.178 29.685 186.788 30.355C187.398 31.025 187.703 31.915 187.703 33.025ZM184.223 30.625C183.643 30.625 183.173 30.795 182.813 31.135C182.463 31.475 182.243 31.97 182.153 32.62H186.203C186.123 31.99 185.908 31.5 185.558 31.15C185.218 30.8 184.773 30.625 184.223 30.625ZM192.429 37.15C191.669 37.15 190.994 37.02 190.404 36.76C189.824 36.5 189.384 36.105 189.084 35.575L190.164 34.645C190.354 35.075 190.649 35.39 191.049 35.59C191.449 35.79 191.929 35.89 192.489 35.89C192.999 35.89 193.394 35.81 193.674 35.65C193.954 35.48 194.094 35.26 194.094 34.99C194.094 34.75 193.964 34.56 193.704 34.42C193.444 34.27 192.994 34.13 192.354 34C191.244 33.79 190.464 33.51 190.014 33.16C189.564 32.81 189.339 32.315 189.339 31.675C189.339 31.265 189.464 30.885 189.714 30.535C189.964 30.175 190.324 29.89 190.794 29.68C191.274 29.46 191.839 29.35 192.489 29.35C193.319 29.35 193.984 29.49 194.484 29.77C194.984 30.04 195.369 30.465 195.639 31.045L194.499 31.885C194.319 31.445 194.064 31.125 193.734 30.925C193.414 30.715 193.004 30.61 192.504 30.61C192.054 30.61 191.679 30.705 191.379 30.895C191.089 31.075 190.944 31.285 190.944 31.525C190.944 31.795 191.074 32.01 191.334 32.17C191.604 32.33 192.089 32.475 192.789 32.605C193.849 32.795 194.599 33.065 195.039 33.415C195.479 33.765 195.699 34.255 195.699 34.885C195.699 35.555 195.409 36.1 194.829 36.52C194.249 36.94 193.449 37.15 192.429 37.15ZM200.368 37.15C199.608 37.15 198.933 37.02 198.343 36.76C197.763 36.5 197.323 36.105 197.023 35.575L198.103 34.645C198.293 35.075 198.588 35.39 198.988 35.59C199.388 35.79 199.868 35.89 200.428 35.89C200.938 35.89 201.333 35.81 201.613 35.65C201.893 35.48 202.033 35.26 202.033 34.99C202.033 34.75 201.903 34.56 201.643 34.42C201.383 34.27 200.933 34.13 200.293 34C199.183 33.79 198.403 33.51 197.953 33.16C197.503 32.81 197.278 32.315 197.278 31.675C197.278 31.265 197.403 30.885 197.653 30.535C197.903 30.175 198.263 29.89 198.733 29.68C199.213 29.46 199.778 29.35 200.428 29.35C201.258 29.35 201.923 29.49 202.423 29.77C202.923 30.04 203.308 30.465 203.578 31.045L202.438 31.885C202.258 31.445 202.003 31.125 201.673 30.925C201.353 30.715 200.943 30.61 200.443 30.61C199.993 30.61 199.618 30.705 199.318 30.895C199.028 31.075 198.883 31.285 198.883 31.525C198.883 31.795 199.013 32.01 199.273 32.17C199.543 32.33 200.028 32.475 200.728 32.605C201.788 32.795 202.538 33.065 202.978 33.415C203.418 33.765 203.638 34.255 203.638 34.885C203.638 35.555 203.348 36.1 202.768 36.52C202.188 36.94 201.388 37.15 200.368 37.15ZM214.806 26.95C215.756 26.95 216.581 27.155 217.281 27.565C217.991 27.975 218.536 28.565 218.916 29.335C219.296 30.105 219.486 31.01 219.486 32.05C219.486 33.09 219.296 33.995 218.916 34.765C218.536 35.535 217.991 36.125 217.281 36.535C216.581 36.945 215.756 37.15 214.806 37.15C213.856 37.15 213.031 36.945 212.331 36.535C211.631 36.125 211.091 35.535 210.711 34.765C210.331 33.995 210.141 33.09 210.141 32.05C210.141 31.01 210.331 30.105 210.711 29.335C211.091 28.565 211.631 27.975 212.331 27.565C213.031 27.155 213.856 26.95 214.806 26.95ZM214.806 28.345C213.876 28.345 213.146 28.67 212.616 29.32C212.086 29.97 211.821 30.88 211.821 32.05C211.821 33.22 212.086 34.13 212.616 34.78C213.146 35.43 213.876 35.755 214.806 35.755C215.746 35.755 216.481 35.43 217.011 34.78C217.541 34.13 217.806 33.22 217.806 32.05C217.806 30.88 217.541 29.97 217.011 29.32C216.481 28.67 215.746 28.345 214.806 28.345ZM225.624 29.35C226.454 29.35 227.129 29.59 227.649 30.07C228.179 30.55 228.444 31.24 228.444 32.14V37H226.839V32.65C226.839 31.33 226.304 30.67 225.234 30.67C224.674 30.67 224.194 30.865 223.794 31.255C223.394 31.635 223.194 32.225 223.194 33.025V37H221.589V29.5H223.014L223.089 30.745C223.339 30.275 223.684 29.925 224.124 29.695C224.564 29.465 225.064 29.35 225.624 29.35ZM232.436 34.81C232.436 35.18 232.491 35.44 232.601 35.59C232.711 35.73 232.916 35.8 233.216 35.8C233.406 35.8 233.566 35.79 233.696 35.77C233.836 35.74 234.006 35.685 234.206 35.605L234.026 36.895C233.686 37.065 233.271 37.15 232.781 37.15C232.111 37.15 231.616 36.98 231.296 36.64C230.986 36.3 230.831 35.765 230.831 35.035V26.125H232.436V34.81ZM238.662 37.885C238.332 38.745 237.957 39.35 237.537 39.7C237.117 40.05 236.567 40.225 235.887 40.225C235.497 40.225 235.157 40.175 234.867 40.075C234.587 39.985 234.337 39.835 234.117 39.625L234.582 38.395C234.882 38.755 235.292 38.935 235.812 38.935C236.112 38.935 236.362 38.855 236.562 38.695C236.772 38.545 236.957 38.265 237.117 37.855L237.447 37.045L236.667 35.185L234.327 29.5H236.127L237.777 34.21L238.212 35.62L238.722 34.075L240.282 29.5H241.947L238.662 37.885Z" fill="white"/>
<rect width="33" height="18" fill="black" fill-opacity="0" transform="translate(18 22)"/>
<path fill-rule="evenodd" clip-rule="evenodd" d="M51 31C51 31 43.6128 40 34.5 40C25.3872 40 18 31 18 31C18 31 25.3872 22 34.5 22C43.6128 22 51 31 51 31Z" stroke="white" stroke-linejoin="round"/>
<path fill-rule="evenodd" clip-rule="evenodd" d="M43 31C43 35.9706 38.9706 40 34 40C29.0294 40 25 35.9706 25 31C25 26.0294 29.0294 22 34 22C38.9706 22 43 26.0294 43 31Z" stroke="white" stroke-linejoin="round"/>
<path fill-rule="evenodd" clip-rule="evenodd" d="M40 31C40 34.3136 37.3136 37 34 37C30.6864 37 28 34.3136 28 31C28 27.6864 30.6864 25 34 25C37.3136 25 40 27.6864 40 31Z" stroke="white" stroke-linejoin="round"/>
<path d="M31 31C31 29.3435 32.3435 28 34 28" stroke="white" stroke-linejoin="round"/>
</svg>
